# https://github.com/mikedh/trimesh
mtllib material.mtl
usemtl material_0
v -0.05131715 -0.11004968 0.14986739
v -0.05475025 -0.11741165 0.09864673
v -0.01129115 -0.12905657 0.09864673
v -0.01058298 -0.12096429 0.14986739
v -0.05783443 -0.12402571 0.03004423
v -0.01192710 -0.13632661 0.03004423
v 0.03541871 -0.13218444 0.03004423
v 0.03352967 -0.12513528 0.09864673
v 0.03142733 -0.11728907 0.14986739
v 0.07849248 -0.11209892 0.03004423
v 0.07430662 -0.10612081 0.09864673
v 0.06964744 -0.09946669 0.14986739
v 0.11209892 -0.07849248 0.03004423
v 0.10612081 -0.07430662 0.09864673
v 0.09946669 -0.06964744 0.14986739
v 0.13218444 -0.03541871 0.03004423
v 0.12513528 -0.03352997 0.09864673
v 0.11728877 -0.03142733 0.14986739
v 0.13632661 0.01192710 0.03004423
v 0.12905657 0.01129115 0.09864673
v 0.12905657 0.01129115 0.09864673
v 0.12096429 0.01058298 0.14986739
v 0.12402571 0.05783443 0.03004423
v 0.11741165 0.05474995 0.09864673
v 0.12905657 0.01129115 0.09864673
v 0.13632661 0.01192710 0.03004423
v 0.11004968 0.05131715 0.14986739
v 0.12096429 0.01058298 0.14986739
v 0.09676573 0.09676573 0.03004423
v 0.09160531 0.09160531 0.09864673
v 0.08586143 0.08586143 0.14986739
v 0.05783412 0.12402601 0.03004423
v 0.05474995 0.11741195 0.09864673
v 0.05131685 0.11004968 0.14986739
v 0.01192710 0.13632661 0.03004423
v 0.01129084 0.12905657 0.09864673
v 0.01058298 0.12096459 0.14986739
v -0.03541871 0.13218444 0.03004423
v -0.03352997 0.12513528 0.09864673
v -0.03142764 0.11728907 0.14986739
v -0.07849248 0.11209892 0.03004423
v -0.07430662 0.10612081 0.09864673
v -0.06964744 0.09946669 0.14986739
v -0.11209892 0.07849248 0.03004423
v -0.10612081 0.07430662 0.09864673
v -0.09946669 0.06964744 0.14986739
v -0.13218444 0.03541871 0.03004423
v -0.12513528 0.03352997 0.09864673
v -0.11728907 0.03142764 0.14986739
v -0.13632691 -0.01192679 0.03004423
v -0.12905657 -0.01129084 0.09864673
v -0.12096459 -0.01058298 0.14986739
v -0.12402601 -0.05783412 0.03004423
v -0.11741195 -0.05474995 0.09864673
v -0.11004998 -0.05131685 0.14986739
v -0.09676603 -0.09676573 0.03004423
v -0.09160561 -0.09160531 0.09864673
v -0.08586173 -0.08586143 0.14986739
v 0.03639114 -0.13581354 -0.09646975
v 0.03602371 -0.13444273 -0.04124739
v -0.01213099 -0.13865559 -0.04124739
v -0.01225448 -0.14006949 -0.09646975
v -0.05882233 -0.12614443 -0.04124739
v -0.05942218 -0.12743089 -0.09646975
v 0.08064731 -0.11517642 -0.09646975
v 0.07983326 -0.11401375 -0.04124739
v 0.11517642 -0.08064731 -0.09646975
v 0.11401375 -0.07983326 -0.04124739
v 0.13581354 -0.03639114 -0.09646975
v 0.13444242 -0.03602371 -0.04124739
v 0.14006949 0.01225448 -0.09646975
v 0.13865559 0.01213099 -0.04124739
v 0.13444242 -0.03602371 -0.04124739
v 0.13581354 -0.03639114 -0.09646975
v 0.13444242 -0.03602371 -0.04124739
v 0.13218444 -0.03541871 0.03004423
v 0.12743089 0.05942218 -0.09646975
v 0.12614443 0.05882233 -0.04124739
v 0.09942240 0.09942240 -0.09646975
v 0.09841871 0.09841902 -0.04124739
v 0.05942187 0.12743089 -0.09646975
v 0.05882203 0.12614473 -0.04124739
v 0.01225448 0.14006949 -0.09646975
v 0.01213068 0.13865559 -0.04124739
v -0.03639114 0.13581354 -0.09646975
v -0.03602401 0.13444273 -0.04124739
v -0.08064761 0.11517672 -0.09646975
v -0.07983356 0.11401405 -0.04124739
v -0.11517642 0.08064761 -0.09646975
v -0.11401405 0.07983356 -0.04124739
v -0.13581354 0.03639114 -0.09646975
v -0.13444273 0.03602401 -0.04124739
v -0.14006949 -0.01225448 -0.09646975
v -0.13865559 -0.01213068 -0.04124739
v -0.12743120 -0.05942187 -0.09646975
v -0.12614473 -0.05882203 -0.04124739
v -0.09942240 -0.09942240 -0.09646975
v -0.09841902 -0.09841871 -0.04124739
vn -0.39519236 -0.84748362 0.35439315
vn -0.41900041 -0.89850087 0.13090013
vn -0.08640201 -0.98762295 0.13090304
vn -0.08149906 -0.93168922 0.35399590
vn -0.42162016 -0.90414323 0.06900330
vn -0.08690213 -0.99382432 0.06900169
vn 0.25820604 -0.96362255 0.06900161
vn 0.25660306 -0.95761143 0.13090156
vn 0.24200332 -0.90331241 0.35420487
vn 0.57220295 -0.81720422 0.06900036
vn 0.56861502 -0.81212145 0.13090346
vn 0.53641647 -0.76602352 0.35421087
vn 0.81720422 -0.57220295 0.06900036
vn 0.81212145 -0.56861502 0.13090346
vn 0.76602352 -0.53641647 0.35421087
vn 0.96353265 -0.25810875 0.07060239
vn 0.95761143 -0.25660306 0.13090156
vn 0.90331241 -0.24200332 0.35420487
vn 0.99349923 0.08709993 0.07329994
vn 0.98800310 0.08670027 0.12780040
vn 0.98721295 0.08680114 0.13370175
vn 0.93169412 0.08229948 0.35379777
vn 0.90414323 0.42162016 0.06900330
vn 0.89850087 0.41900041 0.13090013
vn 0.98766795 0.08589721 0.13089575
vn 0.99393112 0.08670271 0.06770212
vn 0.84751365 0.39520637 0.35430571
vn 0.93182881 0.08070249 0.35381094
vn 0.70542140 0.70542140 0.06900209
vn 0.70102215 0.70102215 0.13090414
vn 0.66131297 0.66121297 0.35420695
vn 0.42162016 0.90414323 0.06900330
vn 0.41900041 0.89850087 0.13090013
vn 0.39520637 0.84751365 0.35430571
vn 0.08690213 0.99382432 0.06900169
vn 0.08640201 0.98762295 0.13090304
vn 0.08149799 0.93157704 0.35429127
vn -0.25820604 0.96362255 0.06900161
vn -0.25660306 0.95761143 0.13090156
vn -0.24199475 0.90328041 0.35429232
vn -0.57220295 0.81720422 0.06900036
vn -0.56861502 0.81212145 0.13090346
vn -0.53639747 0.76599638 0.35429833
vn -0.81720422 0.57220295 0.06900036
vn -0.81212145 0.56861502 0.13090346
vn -0.76602352 0.53641647 0.35421087
vn -0.96362255 0.25820604 0.06900161
vn -0.95761143 0.25660306 0.13090156
vn -0.90331241 0.24200332 0.35420487
vn -0.99382432 -0.08690213 0.06900169
vn -0.98762295 -0.08640201 0.13090304
vn -0.93161004 -0.08150088 0.35420382
vn -0.90414323 -0.42162016 0.06900330
vn -0.89850087 -0.41900041 0.13090013
vn -0.84754368 -0.39522037 0.35421826
vn -0.70542140 -0.70542140 0.06900209
vn -0.70102215 -0.70102215 0.13090414
vn -0.66121297 -0.66131297 0.35420695
vn 0.25839883 -0.96429564 0.05799974
vn 0.25870406 -0.96551517 0.02920046
vn -0.08709753 -0.99577178 0.02919917
vn -0.08700160 -0.99451827 0.05800107
vn -0.42241495 -0.90593207 0.02920103
vn -0.42189193 -0.90478269 0.05809889
vn 0.57259095 -0.81778708 0.05799908
vn 0.57331176 -0.81881680 0.02920060
vn 0.81778708 -0.57259095 0.05799908
vn 0.81881680 -0.57331176 0.02920060
vn 0.96429564 -0.25839883 0.05799974
vn 0.96551517 -0.25870406 0.02920046
vn 0.99451827 0.08700160 0.05800107
vn 0.99577178 0.08709753 0.02919917
vn 0.96552637 -0.25870707 0.02880079
vn 0.96429564 -0.25839883 0.05799974
vn 0.96550381 -0.25870102 0.02960012
vn 0.96389605 -0.25829894 0.06469974
vn 0.90478794 0.42189438 0.05799923
vn 0.90593207 0.42241495 0.02920103
vn 0.70591637 0.70591637 0.05800135
vn 0.70680526 0.70680526 0.02920022
vn 0.42189438 0.90478794 0.05799923
vn 0.42241495 0.90593207 0.02920103
vn 0.08700160 0.99451827 0.05800107
vn 0.08709753 0.99577178 0.02919917
vn -0.25839883 0.96429564 0.05799974
vn -0.25870406 0.96551517 0.02920046
vn -0.57259095 0.81778708 0.05799908
vn -0.57331176 0.81881680 0.02920060
vn -0.81778708 0.57259095 0.05799908
vn -0.81881680 0.57331176 0.02920060
vn -0.96429564 0.25839883 0.05799974
vn -0.96551517 0.25870406 0.02920046
vn -0.99451827 -0.08700160 0.05800107
vn -0.99577178 -0.08709753 0.02919917
vn -0.90478794 -0.42189438 0.05799923
vn -0.90593207 -0.42241495 0.02920103
vn -0.70591637 -0.70591637 0.05800135
vn -0.70680526 -0.70680526 0.02920022
vt 0.72222200 0.07196500
vt 0.72222200 0.28649700
vt 0.77777800 0.28649700
vt 0.77777800 0.07196500
vt 0.72222200 0.50102900
vt 0.77777800 0.50102900
vt 0.83333300 0.50102900
vt 0.83333300 0.28649700
vt 0.83333300 0.07196500
vt 0.88888900 0.50102900
vt 0.88888900 0.28649700
vt 0.88888900 0.07196500
vt 0.94444400 0.50102900
vt 0.94444400 0.28649700
vt 0.94444400 0.07196500
vt 1.00000000 0.50102900
vt 1.00000000 0.28649700
vt 1.00000000 0.07196500
vt 1.05667200 0.49998800
vt 1.05513100 0.28551200
vt 1.05513300 0.28482300
vt 1.05366600 0.07038100
vt 0.11111100 0.50102900
vt 0.11111100 0.28649700
vt 0.05555600 0.28649700
vt 0.05555600 0.50102900
vt 0.11111100 0.07196500
vt 0.05555600 0.07196500
vt 0.16666700 0.50102900
vt 0.16666700 0.28649700
vt 0.16666700 0.07196500
vt 0.22222200 0.50102900
vt 0.22222200 0.28649700
vt 0.22222200 0.07196500
vt 0.27777800 0.50102900
vt 0.27777800 0.28649700
vt 0.27777800 0.07196500
vt 0.33333300 0.50102900
vt 0.33333300 0.28649700
vt 0.33333300 0.07196500
vt 0.38888900 0.50102900
vt 0.38888900 0.28649700
vt 0.38888900 0.07196500
vt 0.44444400 0.50102900
vt 0.44444400 0.28649700
vt 0.44444400 0.07196500
vt 0.50000000 0.50102900
vt 0.50000000 0.28649700
vt 0.50000000 0.07196500
vt 0.55555500 0.50102900
vt 0.55555500 0.28649700
vt 0.55555500 0.07196500
vt 0.61111100 0.50102900
vt 0.61111100 0.28649700
vt 0.61111100 0.07196500
vt 0.66666700 0.50102900
vt 0.66666700 0.28649700
vt 0.66666700 0.07196500
vt 0.83333300 0.93009300
vt 0.83333300 0.71556100
vt 0.77777800 0.71556100
vt 0.77777800 0.93009300
vt 0.72222200 0.71556100
vt 0.72222200 0.93009300
vt 0.88888900 0.93009300
vt 0.88888900 0.71556100
vt 0.94444400 0.93009300
vt 0.94444400 0.71556100
vt 1.00000000 0.93009300
vt 1.00000000 0.71556100
vt 0.05555600 0.93009300
vt 0.05555600 0.71556100
vt 0.00042800 0.71523400
vt 0.00014900 0.92976300
vt 0.00042800 0.71505800
vt 0.00114500 0.50053900
vt 0.11111100 0.93009300
vt 0.11111100 0.71556100
vt 0.16666700 0.93009300
vt 0.16666700 0.71556100
vt 0.22222200 0.93009300
vt 0.22222200 0.71556100
vt 0.27777800 0.93009300
vt 0.27777800 0.71556100
vt 0.33333300 0.93009300
vt 0.33333300 0.71556100
vt 0.38888900 0.93009300
vt 0.38888900 0.71556100
vt 0.44444400 0.93009300
vt 0.44444400 0.71556100
vt 0.50000000 0.93009300
vt 0.50000000 0.71556100
vt 0.55555500 0.93009300
vt 0.55555500 0.71556100
vt 0.61111100 0.93009300
vt 0.61111100 0.71556100
vt 0.66666700 0.93009300
vt 0.66666700 0.71556100
f 1/1/1 2/2/2 3/3/3
f 1/1/1 3/3/3 4/4/4
f 3/3/3 2/2/2 5/5/5
f 3/3/3 5/5/5 6/6/6
f 7/7/7 8/8/8 3/3/3
f 7/7/7 3/3/3 6/6/6
f 3/3/3 8/8/8 9/9/9
f 3/3/3 9/9/9 4/4/4
f 10/10/10 11/11/11 8/8/8
f 10/10/10 8/8/8 7/7/7
f 8/8/8 11/11/11 12/12/12
f 8/8/8 12/12/12 9/9/9
f 13/13/13 14/14/14 11/11/11
f 13/13/13 11/11/11 10/10/10
f 11/11/11 14/14/14 15/15/15
f 11/11/11 15/15/15 12/12/12
f 16/16/16 17/17/17 14/14/14
f 16/16/16 14/14/14 13/13/13
f 14/14/14 17/17/17 18/18/18
f 14/14/14 18/18/18 15/15/15
f 19/19/19 20/20/20 17/17/17
f 19/19/19 17/17/17 16/16/16
f 17/17/17 21/21/21 22/22/22
f 17/17/17 22/22/22 18/18/18
f 23/23/23 24/24/24 25/25/25
f 23/23/23 25/25/25 26/26/26
f 25/25/25 24/24/24 27/27/27
f 25/25/25 27/27/27 28/28/28
f 29/29/29 30/30/30 24/24/24
f 29/29/29 24/24/24 23/23/23
f 24/24/24 30/30/30 31/31/31
f 24/24/24 31/31/31 27/27/27
f 32/32/32 33/33/33 30/30/30
f 32/32/32 30/30/30 29/29/29
f 30/30/30 33/33/33 34/34/34
f 30/30/30 34/34/34 31/31/31
f 35/35/35 36/36/36 33/33/33
f 35/35/35 33/33/33 32/32/32
f 33/33/33 36/36/36 37/37/37
f 33/33/33 37/37/37 34/34/34
f 38/38/38 39/39/39 36/36/36
f 38/38/38 36/36/36 35/35/35
f 36/36/36 39/39/39 40/40/40
f 36/36/36 40/40/40 37/37/37
f 41/41/41 42/42/42 39/39/39
f 41/41/41 39/39/39 38/38/38
f 39/39/39 42/42/42 43/43/43
f 39/39/39 43/43/43 40/40/40
f 44/44/44 45/45/45 42/42/42
f 44/44/44 42/42/42 41/41/41
f 42/42/42 45/45/45 46/46/46
f 42/42/42 46/46/46 43/43/43
f 47/47/47 48/48/48 45/45/45
f 47/47/47 45/45/45 44/44/44
f 45/45/45 48/48/48 49/49/49
f 45/45/45 49/49/49 46/46/46
f 50/50/50 51/51/51 48/48/48
f 50/50/50 48/48/48 47/47/47
f 48/48/48 51/51/51 52/52/52
f 48/48/48 52/52/52 49/49/49
f 53/53/53 54/54/54 51/51/51
f 53/53/53 51/51/51 50/50/50
f 51/51/51 54/54/54 55/55/55
f 51/51/51 55/55/55 52/52/52
f 56/56/56 57/57/57 54/54/54
f 56/56/56 54/54/54 53/53/53
f 54/54/54 57/57/57 58/58/58
f 54/54/54 58/58/58 55/55/55
f 5/5/5 2/2/2 57/57/57
f 5/5/5 57/57/57 56/56/56
f 57/57/57 2/2/2 1/1/1
f 57/57/57 1/1/1 58/58/58
f 59/59/59 60/60/60 61/61/61
f 59/59/59 61/61/61 62/62/62
f 61/61/61 60/60/60 7/7/7
f 61/61/61 7/7/7 6/6/6
f 5/5/5 63/63/63 61/61/61
f 5/5/5 61/61/61 6/6/6
f 61/61/61 63/63/63 64/64/64
f 61/61/61 64/64/64 62/62/62
f 65/65/65 66/66/66 60/60/60
f 65/65/65 60/60/60 59/59/59
f 60/60/60 66/66/66 10/10/10
f 60/60/60 10/10/10 7/7/7
f 67/67/67 68/68/68 66/66/66
f 67/67/67 66/66/66 65/65/65
f 66/66/66 68/68/68 13/13/13
f 66/66/66 13/13/13 10/10/10
f 69/69/69 70/70/70 68/68/68
f 69/69/69 68/68/68 67/67/67
f 68/68/68 70/70/70 16/16/16
f 68/68/68 16/16/16 13/13/13
f 71/71/71 72/72/72 73/73/73
f 71/71/71 73/73/73 74/74/74
f 75/75/75 72/72/72 26/26/26
f 75/75/75 26/26/26 76/76/76
f 77/77/77 78/78/78 72/72/72
f 77/77/77 72/72/72 71/71/71
f 72/72/72 78/78/78 23/23/23
f 72/72/72 23/23/23 26/26/26
f 79/79/79 80/80/80 78/78/78
f 79/79/79 78/78/78 77/77/77
f 78/78/78 80/80/80 29/29/29
f 78/78/78 29/29/29 23/23/23
f 81/81/81 82/82/82 80/80/80
f 81/81/81 80/80/80 79/79/79
f 80/80/80 82/82/82 32/32/32
f 80/80/80 32/32/32 29/29/29
f 83/83/83 84/84/84 82/82/82
f 83/83/83 82/82/82 81/81/81
f 82/82/82 84/84/84 35/35/35
f 82/82/82 35/35/35 32/32/32
f 85/85/85 86/86/86 84/84/84
f 85/85/85 84/84/84 83/83/83
f 84/84/84 86/86/86 38/38/38
f 84/84/84 38/38/38 35/35/35
f 87/87/87 88/88/88 86/86/86
f 87/87/87 86/86/86 85/85/85
f 86/86/86 88/88/88 41/41/41
f 86/86/86 41/41/41 38/38/38
f 89/89/89 90/90/90 88/88/88
f 89/89/89 88/88/88 87/87/87
f 88/88/88 90/90/90 44/44/44
f 88/88/88 44/44/44 41/41/41
f 91/91/91 92/92/92 90/90/90
f 91/91/91 90/90/90 89/89/89
f 90/90/90 92/92/92 47/47/47
f 90/90/90 47/47/47 44/44/44
f 93/93/93 94/94/94 92/92/92
f 93/93/93 92/92/92 91/91/91
f 92/92/92 94/94/94 50/50/50
f 92/92/92 50/50/50 47/47/47
f 95/95/95 96/96/96 94/94/94
f 95/95/95 94/94/94 93/93/93
f 94/94/94 96/96/96 53/53/53
f 94/94/94 53/53/53 50/50/50
f 97/97/97 98/98/98 96/96/96
f 97/97/97 96/96/96 95/95/95
f 96/96/96 98/98/98 56/56/56
f 96/96/96 56/56/56 53/53/53
f 64/64/64 63/63/63 98/98/98
f 64/64/64 98/98/98 97/97/97
f 98/98/98 63/63/63 5/5/5
f 98/98/98 5/5/5 56/56/56