# Blender v3.0.1 OBJ File: 'marker_collision_export.blend'
# www.blender.org
o cap_collision.002_cap_collision.018
v -0.000168 0.130875 0.010805
v -0.007588 0.130875 0.007820
v -0.000138 0.106514 0.008957
v -0.000213 0.130138 0.007307
v -0.000155 0.108395 0.006362
v -0.005073 0.130322 0.005420
v -0.004400 0.108395 0.004697
v -0.006288 0.106514 0.006483
vt 0.919706 0.419706
vt 1.000000 0.500000
vt 0.946840 0.446840
vt 0.909954 0.409954
vt 0.875000 0.500000
vt 0.875000 1.000000
vt 1.000000 1.000000
vt 0.696840 0.696840
vt 0.411077 0.411077
vt 0.419706 0.419706
vn 0.5212 0.8531 0.0243
vn 0.0176 0.1425 -0.9896
vn -0.5770 0.7372 0.3514
vn -0.0163 0.9848 0.1727
vn -0.9988 -0.0235 -0.0435
vn -0.2991 -0.5477 0.7814
vn 0.3074 -0.0543 0.9500
vn -0.1087 0.9342 0.3398
vn 0.7766 0.3073 0.5499
vn 0.6072 -0.5360 0.5865
vn 0.3334 -0.9398 -0.0746
vn 0.2818 0.5622 -0.7775
vn 0.4803 0.4094 -0.7757
vn 0.6421 -0.1093 -0.7588
vn -0.3290 -0.5096 -0.7950
vn -0.1561 0.4664 -0.8707
vn -0.5639 0.6403 -0.5216
vn -0.2536 -0.0740 -0.9645
vn -0.7496 -0.3213 -0.5788
vn -0.9241 -0.0127 -0.3819
vn -0.8211 -0.2271 -0.5237
vn 0.5539 -0.2289 -0.8005
vn 0.4775 -0.8426 -0.2490
vn -0.3030 -0.9344 -0.1873
s off
f 2/1/1 1/2/2 4/3/3 6/4/4
f 1/2/5 2/5/6 8/6/7 3/7/8
f 5/8/9 4/3/10 1/2/11 3/7/12
f 7/9/13 6/4/14 4/3/15 5/8/16
f 8/10/17 2/1/18 6/4/19 7/9/20
f 3/7/21 8/10/22 7/9/23 5/8/24
