# Blender v3.0.1 OBJ File: 'marker_collision_export.blend'
# www.blender.org
o cap_collision_high_friction.013_cap_collision.065
v -0.007245 0.130294 0.000167
v -0.006303 0.108491 0.000142
v -0.006285 0.130201 0.002409
v -0.005472 0.108491 0.002103
v -0.003814 0.108819 0.001547
v -0.003802 0.126480 0.001542
v -0.004182 0.108819 0.000036
v -0.004169 0.126480 0.000036
vt 0.538134 0.538815
vt 0.928770 0.427904
vt 0.911638 0.410799
vt 0.419538 0.420190
vt 0.875000 1.000000
vt 0.937500 1.000000
vt 0.937500 0.500000
vt 0.875000 0.500000
vn -0.9195 -0.0401 0.3911
vn 0.1615 -0.9853 -0.0558
vn 0.3244 -0.0006 0.9459
vn 0.7616 0.5958 -0.2549
vn -0.0459 -0.0004 -0.9989
vn -0.9716 0.0007 0.2368
s off
f 4/1/1 3/2/1 1/3/1 2/4/1
f 7/5/2 5/6/2 4/1/2 2/4/2
f 5/6/3 6/7/3 3/2/3 4/1/3
f 6/7/4 8/8/4 1/3/4 3/2/4
f 8/8/5 7/5/5 2/4/5 1/3/5
s 1
f 6/7/6 8/8/6 7/5/6 5/6/6
