# Blender v3.0.1 OBJ File: 'marker_collision_export.blend'
# www.blender.org
o marker_collision.014_marker_collision.019
v 0.004394 0.108663 0.000116
v 0.003155 0.108663 0.003120
v 0.010804 0.102665 0.000261
v 0.000096 0.108663 0.000059
v 0.000096 0.108663 0.000059
v 0.000096 0.108663 0.000059
v 0.000225 0.102665 0.000120
v 0.000096 0.108663 0.000059
v 0.000096 0.108663 0.000059
v 0.000096 0.108663 0.000059
v 0.000096 0.108663 0.000059
v 0.000096 0.108663 0.000059
v 0.000225 0.102665 0.000120
v 0.000225 0.102665 0.000120
v 0.007755 0.102665 0.007655
v 0.000225 0.102665 0.000120
v 0.000225 0.102665 0.000120
v 0.000225 0.102665 0.000120
v 0.000225 0.102665 0.000120
v 0.000225 0.102665 0.000120
vt 0.893680 0.393680
vt 0.919706 0.419706
vt 0.750000 0.490000
vt 0.750000 0.453194
vt 1.000000 0.500000
vt 0.875000 0.500000
vt 0.875000 1.000000
vt 1.000000 1.000000
vt 0.000000 0.000000
vt 0.000000 0.000000
vt 0.000000 0.000000
vt 0.000000 0.000000
vt 0.000000 0.000000
vt 0.000000 0.000000
vt 0.606320 0.393680
vt 0.546806 0.250000
vt 0.606320 0.106320
vt 0.750000 0.046806
vt 0.893680 0.106320
vt 0.953194 0.250000
vt 0.419706 0.419706
vt 0.393680 0.393680
vt 0.453194 0.250000
vt 0.393680 0.106320
vt 0.250000 0.046806
vt 0.106320 0.106320
vt 0.046806 0.250000
vt 0.106320 0.393680
vt 0.250000 0.453194
vt 0.250000 0.490000
vn 0.0000 1.0000 0.0000
vn 0.6546 0.7061 0.2700
vn 0.0133 -0.0099 -0.9999
vn 0.0000 0.0000 1.0000
vn -0.7073 -0.0080 0.7069
vn 0.0000 -1.0000 0.0000
s 1
f 6/1/1 2/2/1 1/3/1 4/4/1
f 1/5/2 2/6/2 15/7/2 3/8/2
f 1/9/3 3/10/3 14/11/3 7/12/3 6/13/3 4/14/3
f 4/4/4 5/15/4 12/16/4 11/17/4 10/18/4 9/19/4 8/20/4 6/1/4
f 15/21/5 2/2/5 6/1/5 7/22/5
f 7/22/4 13/23/4 20/24/4 19/25/4 18/26/4 17/27/4 16/28/4 14/29/4
f 14/29/6 3/30/6 15/21/6 7/22/6
