# https://github.com/mikedh/trimesh
mtllib material.mtl
usemtl material_0
v 0.04188030 0.12303410 0.35721724
v 0.02699925 0.12368939 0.35363384
v 0.02666030 0.12634727 0.35549309
v -0.04188030 0.12303410 0.35721724
v -0.02699925 0.12368939 0.35363384
v -0.04334553 0.12003538 0.35535799
v 0.01803747 0.12773341 0.35498303
v 0.00411982 0.12654805 0.35312355
v 0.00411888 0.12910472 0.35498303
v -0.04059114 0.12109741 0.42425637
v -0.03124287 0.12240775 0.42859673
v -0.03026017 0.12486157 0.42697004
v 0.01185857 0.12980403 0.42784541
v 0.00272638 0.12862361 0.42964369
v 0.01194001 0.12779391 0.42961427
v -0.02485401 0.12664526 0.42778374
v -0.01714492 0.12682015 0.42959991
v -0.01691566 0.12890913 0.42781904
v -0.04687690 0.12191770 0.36790103
v -0.05032118 0.11832560 0.40197503
v -0.04854196 0.12145848 0.40228079
v 0.04687690 0.12191770 0.36790103
v 0.05032118 0.11832560 0.40197503
v 0.04867095 0.11881048 0.36639650
v -0.01803747 0.12773341 0.35498303
v -0.00411982 0.12654805 0.35312355
v -0.01804218 0.12517650 0.35312355
v 0.04803331 0.12107363 0.41449901
v 0.04644592 0.11726098 0.42211913
v 0.04981300 0.11797159 0.41469908
v -0.01185857 0.12980403 0.42784541
v -0.00272638 0.12862361 0.42964369
v -0.00270779 0.13056383 0.42789931
v 0.04059114 0.12109741 0.42425637
v 0.03124287 0.12240775 0.42859673
v 0.04220559 0.11827381 0.42529250
v -0.04803331 0.12107363 0.41449901
v -0.04644592 0.11726098 0.42211913
v -0.04464952 0.12023239 0.42140876
v 0.02485401 0.12664550 0.42778374
v 0.01714492 0.12682015 0.42959968
v 0.02552037 0.12435927 0.42958014
v -0.00412029 0.12602127 0.35223193
v 0.01804453 0.12464973 0.35223193
v 0.01804218 0.12517650 0.35312355
v -0.01804453 0.12464973 0.35223193
v -0.02716189 0.12311412 0.35274200
v -0.04297975 0.11762064 0.42578962
v -0.04220559 0.11827381 0.42529250
v -0.00273533 0.12839082 0.43048093
v 0.00273533 0.12839082 0.43048093
v 0.01197908 0.12752840 0.43046304
v -0.01197908 0.12752840 0.43046304
v -0.01194001 0.12779391 0.42961427
v 0.05066719 0.11718496 0.41479512
v 0.05117490 0.11752367 0.40182863
v -0.05066719 0.11718496 0.41479512
v -0.04981300 0.11797159 0.41469908
v 0.04297999 0.11762064 0.42578962
v 0.04334553 0.12003538 0.35535799
v 0.04953149 0.11801984 0.36567483
v 0.04404813 0.11929653 0.35446614
v -0.04953149 0.11801984 0.36567483
v -0.04867095 0.11881048 0.36639650
v 0.02584001 0.12396243 0.43044186
v -0.02584001 0.12396243 0.43044186
v -0.02552037 0.12435927 0.42958014
v 0.00412029 0.12602127 0.35223193
v 0.02716189 0.12311412 0.35274200
v -0.05117490 0.11752367 0.40182863
v 0.01725484 0.12651722 0.43045410
v -0.01725484 0.12651722 0.43045410
v 0.03171410 0.12193088 0.42937677
v -0.03171410 0.12193088 0.42937677
v 0.04730764 0.11653696 0.42245996
v -0.04730764 0.11653696 0.42245996
v -0.02666030 0.12634727 0.35549309
v 0.04854196 0.12145848 0.40228079
v 0.01691566 0.12890913 0.42781904
v 0.00270779 0.13056383 0.42789931
v 0.03026017 0.12486157 0.42697004
v 0.04464952 0.12023263 0.42140876
v -0.00411888 0.12910472 0.35498303
v -0.04404813 0.11929653 0.35446614
vn 0.43610779 0.78881410 -0.43310774
vn 0.19579548 0.72358328 -0.66188471
vn 0.20050738 0.84543111 -0.49501821
vn -0.43610779 0.78881410 -0.43310774
vn -0.19579548 0.72358328 -0.66188471
vn -0.47222503 0.76414050 -0.43942329
vn 0.12409190 0.85464422 -0.50416709
vn 0.03629887 0.73657702 -0.67537893
vn 0.04220255 0.86515237 -0.49973025
vn -0.45789127 0.68908687 0.56168930
vn -0.39069697 0.76499408 0.51199603
vn -0.37740331 0.74160650 0.55460486
vn 0.10189348 0.80924819 0.57856296
vn 0.03839968 0.84719305 0.52989565
vn 0.11659517 0.83226552 0.54197755
vn -0.26560595 0.77151727 0.57811294
vn -0.19699433 0.81537655 0.54438434
vn -0.17720112 0.79180502 0.58450370
vn -0.65100957 0.75191105 -0.10400153
vn -0.78496025 0.61946863 0.00979950
vn -0.67832093 0.73462266 0.01450045
vn 0.65100957 0.75191105 -0.10400153
vn 0.78496025 0.61946863 0.00979950
vn 0.71970564 0.68120533 -0.13410105
vn -0.12409190 0.85464422 -0.50416709
vn -0.03629887 0.73657702 -0.67537893
vn -0.11630457 0.73462887 -0.66842627
vn 0.67019393 0.71279354 0.20679813
vn 0.59138776 0.68368584 0.42759115
vn 0.74671576 0.63001330 0.21330450
vn -0.10190172 0.80921367 0.57860978
vn -0.03839968 0.84719305 0.52989565
vn -0.03389816 0.81845563 0.57356891
vn 0.45780640 0.68920964 0.56160785
vn 0.39069697 0.76499408 0.51199603
vn 0.48910367 0.70270527 0.51670388
vn -0.67019393 0.71279354 0.20679813
vn -0.59138776 0.68368584 0.42759115
vn -0.56977076 0.68276496 0.45737653
vn 0.26560081 0.77160235 0.57800176
vn 0.19700506 0.81542094 0.54431398
vn 0.29799454 0.79998534 0.52079046
vn -0.04990033 0.99830653 0.02990020
vn 0.13259819 0.99038649 0.03939946
vn 0.11630457 0.73462887 -0.66842627
vn -0.13259767 0.99038258 0.03949931
vn -0.19340278 0.98071408 0.02820040
vn -0.21459582 0.95288145 -0.21439583
vn -0.48907840 0.70266896 0.51677717
vn -0.04550099 0.96102088 -0.27270593
vn 0.04550223 0.96104709 -0.27261336
vn 0.13840007 0.95890045 -0.24770012
vn -0.13830198 0.95891372 -0.24770354
vn -0.11660149 0.83231063 0.54190692
vn 0.10859806 0.99148224 0.07189871
vn 0.18120199 0.98331081 0.01630018
vn -0.10869687 0.99147147 0.07189793
vn -0.74671576 0.63001330 0.21330450
vn 0.21460042 0.95290188 -0.21430042
vn 0.47218894 0.76418210 -0.43938971
vn 0.12190491 0.99253997 -0.00190008
vn 0.14319374 0.98135710 0.12819440
vn -0.12190491 0.99253997 -0.00190008
vn -0.71970564 0.68120533 -0.13410105
vn 0.28029019 0.92846749 -0.24369147
vn -0.28029701 0.92849011 -0.24359741
vn -0.29799454 0.79998534 0.52079046
vn 0.04990033 0.99830653 0.02990020
vn 0.19340332 0.98071684 0.02810048
vn -0.18129871 0.98329298 0.01629988
vn 0.23459554 0.94378206 -0.23289557
vn -0.23469003 0.94375992 -0.23289011
vn 0.28100291 0.93010965 -0.23650245
vn -0.28100291 0.93010965 -0.23650245
vn 0.07680316 0.99574096 -0.05100210
vn -0.07670374 0.99574860 -0.05100249
vn -0.20050738 0.84543111 -0.49501821
vn 0.67832093 0.73462266 0.01450045
vn 0.17720112 0.79180502 0.58450370
vn 0.03390011 0.81850257 0.57350180
vn 0.37740331 0.74160650 0.55460486
vn 0.56977076 0.68276496 0.45737653
vn -0.04220045 0.86510913 -0.49980528
vn -0.14330575 0.98133934 0.12820514
vt 0.63485100 0.81319300
vt 0.62760100 0.83216900
vt 0.63184400 0.83354400
vt 0.63454700 0.92635900
vt 0.62743800 0.90737100
vt 0.63073900 0.92993400
vt 0.63099700 0.84524200
vt 0.62658700 0.86408200
vt 0.63097500 0.86424800
vt 0.72384200 0.92698800
vt 0.73079300 0.91464300
vt 0.72741500 0.91206600
vt 0.72867600 0.85391300
vt 0.73238200 0.86631000
vt 0.73233000 0.85341200
vt 0.72844100 0.90441000
vt 0.73211500 0.89421800
vt 0.72847800 0.89326000
vt 0.64818100 0.93345300
vt 0.69358800 0.94156400
vt 0.69394400 0.93669900
vt 0.64855300 0.80617900
vt 0.69407200 0.79837000
vt 0.64600600 0.80144600
vt 0.63090400 0.89434900
vt 0.62660200 0.87555200
vt 0.62661200 0.89489700
vt 0.71060400 0.80411400
vt 0.72236200 0.80317100
vt 0.71152300 0.79933600
vt 0.72855000 0.88631400
vt 0.73233300 0.87395500
vt 0.72873700 0.87380800
vt 0.72425400 0.81317100
vt 0.73112400 0.82557700
vt 0.72697600 0.80928900
vt 0.71014300 0.93594100
vt 0.72188200 0.93696600
vt 0.71981800 0.93245800
vt 0.72869800 0.83580100
vt 0.73230200 0.84602700
vt 0.73233700 0.83395800
vt 0.62516800 0.87558900
vt 0.62526500 0.84454800
vt 0.62669400 0.84467000
vt 0.62518600 0.89501100
vt 0.62605400 0.90778500
vt 0.72733700 0.93225000
vt 0.72653400 0.93088600
vt 0.73354600 0.87398900
vt 0.73359200 0.86628700
vt 0.73356600 0.85330500
vt 0.73342900 0.88695600
vt 0.73219600 0.88684100
vt 0.71176500 0.79773200
vt 0.69389300 0.79677800
vt 0.71125700 0.94232400
vt 0.71102700 0.94072000
vt 0.72778900 0.80793000
vt 0.63105900 0.80958700
vt 0.64495000 0.79991000
vt 0.62969400 0.80831100
vt 0.64454100 0.93968900
vt 0.64560500 0.93816200
vt 0.73359200 0.83338000
vt 0.73331500 0.90686400
vt 0.73206500 0.90627700
vt 0.62514900 0.86404400
vt 0.62621700 0.83174600
vt 0.69339800 0.94315300
vt 0.73354100 0.84578300
vt 0.73335200 0.89447100
vt 0.73227800 0.82475500
vt 0.73194000 0.91547200
vt 0.72296100 0.80162600
vt 0.72247000 0.93851300
vt 0.63168000 0.90602700
vt 0.69439400 0.80324200
vt 0.72865500 0.84696000
vt 0.72875500 0.86642800
vt 0.72772400 0.82813200
vt 0.72026500 0.80766800
vt 0.63094300 0.87539600
vt 0.62936700 0.93119800
f 1/1/1 2/2/2 3/3/3
f 4/4/4 5/5/5 6/6/6
f 7/7/7 8/8/8 9/9/9
f 10/10/10 11/11/11 12/12/12
f 13/13/13 14/14/14 15/15/15
f 16/16/16 17/17/17 18/18/18
f 19/19/19 20/20/20 21/21/21
f 22/22/22 23/23/23 24/24/24
f 25/25/25 26/26/26 27/27/27
f 28/28/28 29/29/29 30/30/30
f 31/31/31 32/32/32 33/33/33
f 34/34/34 35/35/35 36/36/36
f 37/37/37 38/38/38 39/39/39
f 40/40/40 41/41/41 42/42/42
f 8/8/8 43/43/43 26/26/26
f 2/2/2 44/44/44 45/45/45
f 5/5/5 46/46/46 47/47/47
f 38/38/38 48/48/48 49/49/49
f 14/14/14 50/50/50 51/51/51
f 52/52/52 41/41/41 15/15/15
f 17/17/17 53/53/53 54/54/54
f 23/23/23 55/55/55 56/56/56
f 20/20/20 57/57/57 58/58/58
f 59/59/59 29/29/29 36/36/36
f 60/60/60 61/61/61 62/62/62
f 6/6/6 63/63/63 64/64/64
f 65/65/65 35/35/35 42/42/42
f 11/11/11 66/66/66 67/67/67
f 68/68/68 45/45/45 44/44/44
f 69/69/69 60/60/60 62/62/62
f 47/47/47 6/6/6 5/5/5
f 43/43/43 27/27/27 26/26/26
f 56/56/56 24/24/24 23/23/23
f 64/64/64 70/70/70 20/20/20
f 15/15/15 51/51/51 52/52/52
f 42/42/42 71/71/71 65/65/65
f 67/67/67 72/72/72 17/17/17
f 54/54/54 50/50/50 32/32/32
f 73/73/73 36/36/36 35/35/35
f 49/49/49 74/74/74 11/11/11
f 75/75/75 30/30/30 29/29/29
f 58/58/58 76/76/76 38/38/38
f 26/26/26 9/9/9 8/8/8
f 3/3/3 45/45/45 7/7/7
f 24/24/24 1/1/1 22/22/22
f 64/64/64 4/4/4 6/6/6
f 27/27/27 77/77/77 25/25/25
f 30/30/30 78/78/78 28/28/28
f 58/58/58 21/21/21 20/20/20
f 79/79/79 15/15/15 41/41/41
f 33/33/33 14/14/14 80/80/80
f 81/81/81 42/42/42 35/35/35
f 54/54/54 18/18/18 17/17/17
f 12/12/12 67/67/67 16/16/16
f 82/82/82 36/36/36 29/29/29
f 39/39/39 49/49/49 10/10/10
f 1/1/1 60/60/60 2/2/2
f 4/4/4 77/77/77 5/5/5
f 7/7/7 45/45/45 8/8/8
f 10/10/10 49/49/49 11/11/11
f 13/13/13 80/80/80 14/14/14
f 16/16/16 67/67/67 17/17/17
f 19/19/19 64/64/64 20/20/20
f 22/22/22 78/78/78 23/23/23
f 25/25/25 83/83/83 26/26/26
f 28/28/28 82/82/82 29/29/29
f 31/31/31 54/54/54 32/32/32
f 34/34/34 81/81/81 35/35/35
f 37/37/37 58/58/58 38/38/38
f 40/40/40 79/79/79 41/41/41
f 8/8/8 68/68/68 43/43/43
f 2/2/2 69/69/69 44/44/44
f 5/5/5 27/27/27 46/46/46
f 38/38/38 76/76/76 48/48/48
f 14/14/14 32/32/32 50/50/50
f 52/52/52 71/71/71 41/41/41
f 17/17/17 72/72/72 53/53/53
f 23/23/23 30/30/30 55/55/55
f 20/20/20 70/70/70 57/57/57
f 59/59/59 75/75/75 29/29/29
f 60/60/60 24/24/24 61/61/61
f 6/6/6 84/84/84 63/63/63
f 65/65/65 73/73/73 35/35/35
f 11/11/11 74/74/74 66/66/66
f 68/68/68 8/8/8 45/45/45
f 69/69/69 2/2/2 60/60/60
f 47/47/47 84/84/84 6/6/6
f 43/43/43 46/46/46 27/27/27
f 56/56/56 61/61/61 24/24/24
f 64/64/64 63/63/63 70/70/70
f 15/15/15 14/14/14 51/51/51
f 42/42/42 41/41/41 71/71/71
f 67/67/67 66/66/66 72/72/72
f 54/54/54 53/53/53 50/50/50
f 73/73/73 59/59/59 36/36/36
f 49/49/49 48/48/48 74/74/74
f 75/75/75 55/55/55 30/30/30
f 58/58/58 57/57/57 76/76/76
f 26/26/26 83/83/83 9/9/9
f 3/3/3 2/2/2 45/45/45
f 24/24/24 60/60/60 1/1/1
f 64/64/64 19/19/19 4/4/4
f 27/27/27 5/5/5 77/77/77
f 30/30/30 23/23/23 78/78/78
f 58/58/58 37/37/37 21/21/21
f 79/79/79 13/13/13 15/15/15
f 33/33/33 32/32/32 14/14/14
f 81/81/81 40/40/40 42/42/42
f 54/54/54 31/31/31 18/18/18
f 12/12/12 11/11/11 67/67/67
f 82/82/82 34/34/34 36/36/36
f 39/39/39 38/38/38 49/49/49