# Blender 4.0.0
# www.blender.org
o PepperShaker001_prop
v 0.004090 0.000000 0.044868
v 0.003781 0.001552 0.044868
v 0.002902 0.002867 0.044868
v 0.001587 0.003746 0.044868
v 0.000035 0.004055 0.044868
v -0.001516 0.003746 0.044868
v -0.002832 0.002867 0.044868
v -0.003711 0.001552 0.044868
v -0.004020 0.000000 0.044868
v -0.003711 -0.001552 0.044868
v -0.002832 -0.002867 0.044868
v -0.001516 -0.003746 0.044868
v 0.000035 -0.004055 0.044868
v 0.001587 -0.003746 0.044868
v 0.002902 -0.002867 0.044868
v 0.003781 -0.001552 0.044868
v 0.004090 0.000000 0.045514
v 0.003781 0.001552 0.045514
v 0.002902 0.002867 0.045514
v 0.001587 0.003746 0.045514
v 0.000035 0.004055 0.045514
v -0.001516 0.003746 0.045514
v -0.002832 0.002867 0.045514
v -0.003711 0.001552 0.045514
v -0.004020 0.000000 0.045514
v -0.003711 -0.001552 0.045514
v -0.002832 -0.002867 0.045514
v -0.001516 -0.003746 0.045514
v 0.000035 -0.004055 0.045514
v 0.001587 -0.003746 0.045514
v 0.002902 -0.002867 0.045514
v 0.003781 -0.001552 0.045514
v 0.002958 0.000000 0.045514
v 0.002736 0.001119 0.045514
v 0.002102 0.002067 0.045514
v 0.001154 0.002701 0.045514
v 0.000035 0.002923 0.045514
v -0.001083 0.002701 0.045514
v -0.002032 0.002067 0.045514
v -0.002665 0.001119 0.045514
v -0.002888 0.000000 0.045514
v -0.002665 -0.001119 0.045514
v -0.002032 -0.002067 0.045514
v -0.001083 -0.002701 0.045514
v 0.000035 -0.002923 0.045514
v 0.001154 -0.002701 0.045514
v 0.002102 -0.002067 0.045514
v 0.002736 -0.001119 0.045514
v 0.002958 0.000000 0.046817
v 0.002736 0.001119 0.046817
v 0.002102 0.002067 0.046817
v 0.001154 0.002701 0.046817
v 0.000035 0.002923 0.046817
v -0.001083 0.002701 0.046817
v -0.002032 0.002067 0.046817
v -0.002665 0.001119 0.046817
v -0.002888 0.000000 0.046817
v -0.002665 -0.001119 0.046817
v -0.002032 -0.002067 0.046817
v -0.001083 -0.002701 0.046817
v 0.000035 -0.002923 0.046817
v 0.001154 -0.002701 0.046817
v 0.002102 -0.002067 0.046817
v 0.002736 -0.001119 0.046817
v 0.004146 0.000000 0.046817
v 0.003833 0.001573 0.046817
v 0.002942 0.002907 0.046817
v 0.001608 0.003798 0.046817
v 0.000035 0.004111 0.046817
v -0.001538 0.003798 0.046817
v -0.002872 0.002907 0.046817
v -0.003763 0.001573 0.046817
v -0.004076 0.000000 0.046817
v -0.003763 -0.001573 0.046817
v -0.002872 -0.002907 0.046817
v -0.001538 -0.003798 0.046817
v 0.000035 -0.004111 0.046817
v 0.001608 -0.003798 0.046817
v 0.002942 -0.002907 0.046817
v 0.003833 -0.001573 0.046817
v 0.004146 0.000000 0.048536
v 0.003833 0.001573 0.048536
v 0.002942 0.002907 0.048536
v 0.001608 0.003798 0.048536
v 0.000035 0.004111 0.048536
v -0.001538 0.003798 0.048536
v -0.002872 0.002907 0.048536
v -0.003763 0.001573 0.048536
v -0.004076 0.000000 0.048536
v -0.003763 -0.001573 0.048536
v -0.002872 -0.002907 0.048536
v -0.001538 -0.003798 0.048536
v 0.000035 -0.004111 0.048536
v 0.001608 -0.003798 0.048536
v 0.002942 -0.002907 0.048536
v 0.003833 -0.001573 0.048536
v 0.003595 0.000000 0.048553
v 0.003324 0.001362 0.048553
v 0.002552 0.002517 0.048553
v 0.001398 0.003289 0.048553
v 0.000035 0.003560 0.048553
v -0.001327 0.003289 0.048553
v -0.002482 0.002517 0.048553
v -0.003254 0.001362 0.048553
v -0.003525 0.000000 0.048553
v -0.003254 -0.001362 0.048553
v -0.002482 -0.002517 0.048553
v -0.001327 -0.003289 0.048553
v 0.000035 -0.003560 0.048553
v 0.001398 -0.003289 0.048553
v 0.002552 -0.002517 0.048553
v 0.003324 -0.001362 0.048553
v 0.000035 -0.002011 0.048924
v 0.000035 0.000000 0.049078
v 0.000035 0.002011 0.048924
v -0.001526 0.001884 0.048898
v -0.002048 0.000000 0.048897
v -0.001526 -0.001884 0.048898
v 0.001596 -0.001884 0.048898
v 0.002118 0.000000 0.048897
v 0.001596 0.001884 0.048898
vn 0.9978 0.0661 -0.0000
vn 0.9472 0.3207 -0.0000
vn 0.9978 -0.0661 -0.0000
vn 0.8965 0.4429 -0.0000
vn 0.7523 0.6588 -0.0000
vn 0.6588 0.7523 -0.0000
vn 0.3827 0.9239 -0.0000
vn 0.0661 0.9978 -0.0000
vn -0.3207 0.9472 -0.0000
vn -0.0661 0.9978 -0.0000
vn -0.6588 0.7523 -0.0000
vn -0.4429 0.8965 -0.0000
vn -0.8965 0.4429 -0.0000
vn -0.7523 0.6588 -0.0000
vn -0.9978 0.0661 -0.0000
vn -0.9472 0.3207 -0.0000
vn -0.9472 -0.3207 -0.0000
vn -0.9978 -0.0661 -0.0000
vn -0.7523 -0.6588 -0.0000
vn -0.8965 -0.4429 -0.0000
vn -0.4429 -0.8965 -0.0000
vn -0.6588 -0.7523 -0.0000
vn -0.0000 -1.0000 -0.0000
vn -0.3207 -0.9472 -0.0000
vn 0.3207 -0.9472 -0.0000
vn 0.4429 -0.8965 -0.0000
vn 0.6588 -0.7523 -0.0000
vn 0.7523 -0.6588 -0.0000
vn 0.8965 -0.4429 -0.0000
vn 0.9472 -0.3207 -0.0000
vn -0.0000 -0.0000 1.0000
vn 0.8965 0.4430 -0.0000
vn 0.4430 0.8965 -0.0000
vn 0.3207 0.9472 -0.0000
vn -0.4430 0.8965 -0.0000
vn -0.8965 0.4430 -0.0000
vn -0.8965 -0.4430 -0.0000
vn -0.4430 -0.8965 -0.0000
vn -0.0661 -0.9978 -0.0000
vn 0.0661 -0.9978 -0.0000
vn 0.4430 -0.8965 -0.0000
vn 0.8965 -0.4430 -0.0000
vn -0.0000 -0.0000 -1.0000
vn -1.0000 -0.0000 -0.0000
vn -0.9239 -0.3827 -0.0000
vn 0.0290 0.0100 0.9995
vn 0.1564 0.0008 0.9877
vn 0.0306 -0.0019 0.9995
vn 0.0216 0.0216 0.9995
vn 0.1737 0.0628 0.9828
vn 0.0581 0.1830 0.9814
vn 0.1493 0.1493 0.9775
vn 0.0100 0.0290 0.9995
vn 0.0008 0.1624 0.9867
vn -0.0018 0.0306 0.9995
vn -0.0532 0.1687 0.9842
vn -0.0204 0.0229 0.9995
vn -0.0117 0.0283 0.9995
vn -0.0283 0.0117 0.9995
vn -0.1302 0.1289 0.9831
vn -0.1564 0.0008 0.9877
vn -0.1890 0.0675 0.9797
vn -0.0306 -0.0019 0.9995
vn -0.1614 -0.0579 0.9852
vn -0.0229 -0.0204 0.9995
vn -0.0283 -0.0117 0.9995
vn -0.0134 -0.0276 0.9995
vn -0.1289 -0.1302 0.9831
vn -0.0018 -0.0306 0.9995
vn -0.0569 -0.1834 0.9814
vn 0.0100 -0.0290 0.9995
vn 0.0008 -0.1624 0.9867
vn 0.0203 -0.0230 0.9995
vn 0.0581 -0.1830 0.9814
vn 0.0276 -0.0134 0.9995
vn 0.1302 -0.1289 0.9831
vn 0.1741 -0.0617 0.9828
vn -0.1169 -0.1113 0.9869
vn -0.0000 -0.1714 0.9852
vn 0.1169 -0.1113 0.9869
vn -0.0000 0.1714 0.9852
vn -0.1169 0.1113 0.9869
vn -0.1615 -0.0000 0.9869
vn 0.1169 0.1113 0.9869
vn 0.1615 -0.0000 0.9869
vt 0.834161 0.953810
vt 0.842260 0.960550
vt 0.834161 0.960550
vt 0.842260 0.953810
vt 0.849744 0.960550
vt 0.849744 0.953810
vt 0.857843 0.960550
vt 0.865327 0.953810
vt 0.857843 0.953810
vt 0.873427 0.953810
vt 0.865327 0.960550
vt 0.880910 0.953810
vt 0.873427 0.960550
vt 0.886637 0.953810
vt 0.880910 0.960550
vt 0.894737 0.953810
vt 0.886637 0.960550
vt 0.902220 0.953810
vt 0.894737 0.960550
vt 0.907948 0.953810
vt 0.902220 0.960550
vt 0.797884 0.953810
vt 0.789784 0.960550
vt 0.789784 0.953810
vt 0.805367 0.953810
vt 0.797884 0.960550
vt 0.813467 0.960550
vt 0.805367 0.960550
vt 0.813467 0.953810
vt 0.820950 0.960550
vt 0.820950 0.953810
vt 0.826677 0.960550
vt 0.826677 0.953810
vt 0.916848 0.938613
vt 0.912634 0.930668
vt 0.918428 0.930668
vt 0.912348 0.945348
vt 0.911494 0.936395
vt 0.905613 0.949847
vt 0.908250 0.941250
vt 0.897669 0.951428
vt 0.903395 0.944494
vt 0.891942 0.944494
vt 0.897669 0.945634
vt 0.882990 0.945348
vt 0.889724 0.949847
vt 0.878490 0.938613
vt 0.887087 0.941250
vt 0.876909 0.930668
vt 0.883843 0.936395
vt 0.883843 0.924942
vt 0.882704 0.930668
vt 0.878490 0.922724
vt 0.887087 0.920087
vt 0.882990 0.915989
vt 0.891942 0.916843
vt 0.897669 0.909909
vt 0.889724 0.911490
vt 0.905613 0.911490
vt 0.897669 0.915703
vt 0.912348 0.915989
vt 0.903395 0.916843
vt 0.916848 0.922724
vt 0.908250 0.920087
vt 0.911494 0.924942
vt 0.804673 0.981282
vt 0.798834 0.994869
vt 0.798834 0.981282
vt 0.810068 0.981282
vt 0.804673 0.994869
vt 0.814197 0.981282
vt 0.810068 0.994869
vt 0.820036 0.981282
vt 0.814197 0.994869
vt 0.825431 0.981282
vt 0.820036 0.994869
vt 0.831270 0.981282
vt 0.825431 0.994869
vt 0.836664 0.981282
vt 0.831270 0.994869
vt 0.840793 0.981282
vt 0.836664 0.994869
vt 0.846632 0.981282
vt 0.840793 0.994869
vt 0.852027 0.981282
vt 0.846632 0.994869
vt 0.857866 0.981282
vt 0.852027 0.994869
vt 0.863261 0.981282
vt 0.857866 0.994869
vt 0.869100 0.981282
vt 0.863261 0.994869
vt 0.874494 0.981282
vt 0.869100 0.994869
vt 0.793440 0.981282
vt 0.789311 0.994869
vt 0.789311 0.981282
vt 0.793440 0.994869
vt 0.868608 0.924904
vt 0.875828 0.930631
vt 0.869747 0.930631
vt 0.869664 0.915749
vt 0.874226 0.922577
vt 0.860509 0.916805
vt 0.865364 0.920049
vt 0.854782 0.915666
vt 0.862836 0.911187
vt 0.849055 0.916805
vt 0.854782 0.909584
vt 0.839900 0.915749
vt 0.846728 0.911187
vt 0.840956 0.924904
vt 0.844200 0.920049
vt 0.833736 0.930631
vt 0.835338 0.922577
vt 0.840956 0.936357
vt 0.839817 0.930631
vt 0.844200 0.941212
vt 0.835338 0.938685
vt 0.849055 0.944456
vt 0.839900 0.945512
vt 0.854782 0.951677
vt 0.846728 0.950075
vt 0.860509 0.944456
vt 0.854782 0.945596
vt 0.865364 0.941212
vt 0.862836 0.950075
vt 0.868608 0.936357
vt 0.869664 0.945512
vt 0.874226 0.938685
vt 0.858628 0.962046
vt 0.850416 0.979971
vt 0.850416 0.962046
vt 0.866214 0.962046
vt 0.858628 0.979971
vt 0.872021 0.962046
vt 0.866214 0.979971
vt 0.880232 0.962046
vt 0.872021 0.979971
vt 0.887819 0.962046
vt 0.880232 0.979971
vt 0.896031 0.962046
vt 0.887819 0.979971
vt 0.903617 0.962046
vt 0.896031 0.979971
vt 0.909424 0.962046
vt 0.903617 0.979971
vt 0.789627 0.962017
vt 0.797839 0.979941
vt 0.789627 0.979941
vt 0.805426 0.962017
vt 0.797839 0.962017
vt 0.813637 0.962017
vt 0.805426 0.979941
vt 0.821224 0.962017
vt 0.813637 0.979941
vt 0.829436 0.962017
vt 0.821224 0.979941
vt 0.837022 0.962046
vt 0.829436 0.979941
vt 0.842829 0.962046
vt 0.837022 0.979971
vt 0.842829 0.979971
vt 0.830339 0.939026
vt 0.829120 0.930972
vt 0.831941 0.930972
vt 0.825777 0.945854
vt 0.827733 0.937946
vt 0.817870 0.947809
vt 0.823782 0.943859
vt 0.818949 0.950416
vt 0.810895 0.949197
vt 0.810895 0.952018
vt 0.803921 0.947809
vt 0.796014 0.945854
vt 0.802841 0.950416
vt 0.791451 0.939026
vt 0.798009 0.943859
vt 0.792671 0.930972
vt 0.794058 0.937946
vt 0.789849 0.930972
vt 0.794058 0.923997
vt 0.796014 0.916090
vt 0.791451 0.922918
vt 0.802841 0.911528
vt 0.798009 0.918085
vt 0.810895 0.909926
vt 0.803921 0.914134
vt 0.818949 0.911528
vt 0.810895 0.912747
vt 0.825777 0.916090
vt 0.817870 0.914134
vt 0.830339 0.922918
vt 0.823782 0.918085
vt 0.827733 0.923997
vt 0.810895 0.930972
vt 0.802904 0.921325
vt 0.810895 0.920674
vt 0.818887 0.921325
vt 0.810895 0.941270
vt 0.802904 0.940618
vt 0.800230 0.930972
vt 0.818887 0.940618
vt 0.821560 0.930972
vt 0.907948 0.960550
vt 0.874494 0.994869
vt 0.909424 0.979971
s 1
f 1/1/1 18/2/2 17/3/3
f 2/4/4 19/5/5 18/2/2
f 3/6/6 20/7/7 19/5/5
f 5/8/8 20/7/7 4/9/7
f 6/10/9 21/11/10 5/8/8
f 7/12/11 22/13/12 6/10/9
f 8/14/13 23/15/14 7/12/11
f 9/16/15 24/17/16 8/14/13
f 10/18/17 25/19/18 9/16/15
f 11/20/19 26/21/20 10/18/17
f 12/22/21 27/23/22 11/24/19
f 13/25/23 28/26/24 12/22/21
f 13/25/23 30/27/25 29/28/23
f 14/29/26 31/30/27 30/27/25
f 15/31/28 32/32/29 31/30/27
f 16/33/30 17/3/3 32/32/29
f 18/34/31 33/35/31 17/36/31
f 19/37/31 34/38/31 18/34/31
f 20/39/31 35/40/31 19/37/31
f 21/41/31 36/42/31 20/39/31
f 21/41/31 38/43/31 37/44/31
f 23/45/31 38/43/31 22/46/31
f 24/47/31 39/48/31 23/45/31
f 25/49/31 40/50/31 24/47/31
f 25/49/31 42/51/31 41/52/31
f 26/53/31 43/54/31 42/51/31
f 27/55/31 44/56/31 43/54/31
f 29/57/31 44/56/31 28/58/31
f 30/59/31 45/60/31 29/57/31
f 31/61/31 46/62/31 30/59/31
f 32/63/31 47/64/31 31/61/31
f 17/36/31 48/65/31 32/63/31
f 34/66/2 49/67/1 33/68/3
f 35/69/5 50/70/32 34/66/2
f 36/71/33 51/72/6 35/69/5
f 37/73/8 52/74/34 36/71/33
f 38/75/9 53/76/10 37/73/8
f 39/77/11 54/78/35 38/75/9
f 40/79/36 55/80/14 39/77/11
f 41/81/15 56/82/16 40/79/36
f 42/83/17 57/84/18 41/81/15
f 43/85/19 58/86/37 42/83/17
f 44/87/38 59/88/22 43/85/19
f 45/89/39 60/90/24 44/87/38
f 46/91/25 61/92/40 45/89/39
f 47/93/27 62/94/41 46/91/25
f 48/95/42 63/96/28 47/97/27
f 33/68/3 64/98/30 48/95/42
f 50/99/43 65/100/43 49/101/43
f 50/99/43 67/102/43 66/103/43
f 52/104/43 67/102/43 51/105/43
f 53/106/43 68/107/43 52/104/43
f 54/108/43 69/109/43 53/106/43
f 54/108/43 71/110/43 70/111/43
f 56/112/43 71/110/43 55/113/43
f 56/112/43 73/114/43 72/115/43
f 58/116/43 73/114/43 57/117/43
f 59/118/43 74/119/43 58/116/43
f 60/120/43 75/121/43 59/118/43
f 60/120/43 77/122/43 76/123/43
f 62/124/43 77/122/43 61/125/43
f 63/126/43 78/127/43 62/124/43
f 64/128/43 79/129/43 63/126/43
f 64/128/43 65/100/43 80/130/43
f 66/131/2 81/132/1 65/133/3
f 67/134/5 82/135/32 66/131/2
f 68/136/33 83/137/6 67/134/5
f 69/138/8 84/139/34 68/136/33
f 70/140/9 85/141/10 69/138/8
f 71/142/11 86/143/35 70/140/9
f 72/144/36 87/145/14 71/142/11
f 73/146/44 88/147/16 72/144/36
f 73/148/44 90/149/45 89/150/44
f 75/151/19 90/149/45 74/152/45
f 76/153/38 91/154/22 75/151/19
f 77/155/39 92/156/24 76/153/38
f 78/157/25 93/158/40 77/155/39
f 79/159/27 94/160/41 78/157/25
f 80/161/42 95/162/28 79/159/27
f 65/133/3 96/163/30 80/161/42
f 82/164/46 97/165/47 81/166/48
f 83/167/49 98/168/50 82/164/46
f 83/167/49 100/169/51 99/170/52
f 84/171/53 101/172/54 100/169/51
f 85/173/55 102/174/56 101/172/54
f 87/175/57 102/174/56 86/176/58
f 88/177/59 103/178/60 87/175/57
f 88/177/59 105/179/61 104/180/62
f 89/181/63 106/182/64 105/179/61
f 91/183/65 106/182/64 90/184/66
f 92/185/67 107/186/68 91/183/65
f 93/187/69 108/188/70 92/185/67
f 94/189/71 109/190/72 93/187/69
f 95/191/73 110/192/74 94/189/71
f 96/193/75 111/194/76 95/191/73
f 81/166/48 112/195/77 96/193/75
f 114/196/31 118/197/78 113/198/79
f 119/199/80 114/196/31 113/198/79
f 115/200/81 102/174/56 116/201/82
f 114/196/31 116/201/82 117/202/83
f 108/188/70 113/198/79 118/197/78
f 100/169/51 115/200/81 121/203/84
f 121/203/84 114/196/31 120/204/85
f 113/198/79 110/192/74 119/199/80
f 116/201/82 103/178/60 104/180/62
f 117/202/83 104/180/62 105/179/61
f 117/202/83 106/182/64 118/197/78
f 118/197/78 107/186/68 108/188/70
f 119/199/80 111/194/76 112/195/77
f 120/204/85 112/195/77 97/165/47
f 120/204/85 98/168/50 121/203/84
f 121/203/84 99/170/52 100/169/51
f 1/1/1 2/4/4 18/2/2
f 2/4/4 3/6/6 19/5/5
f 3/6/6 4/9/7 20/7/7
f 5/8/8 21/11/10 20/7/7
f 6/10/9 22/13/12 21/11/10
f 7/12/11 23/15/14 22/13/12
f 8/14/13 24/17/16 23/15/14
f 9/16/15 25/19/18 24/17/16
f 10/18/17 26/21/20 25/19/18
f 11/20/19 27/205/22 26/21/20
f 12/22/21 28/26/24 27/23/22
f 13/25/23 29/28/23 28/26/24
f 13/25/23 14/29/26 30/27/25
f 14/29/26 15/31/28 31/30/27
f 15/31/28 16/33/30 32/32/29
f 16/33/30 1/1/1 17/3/3
f 18/34/31 34/38/31 33/35/31
f 19/37/31 35/40/31 34/38/31
f 20/39/31 36/42/31 35/40/31
f 21/41/31 37/44/31 36/42/31
f 21/41/31 22/46/31 38/43/31
f 23/45/31 39/48/31 38/43/31
f 24/47/31 40/50/31 39/48/31
f 25/49/31 41/52/31 40/50/31
f 25/49/31 26/53/31 42/51/31
f 26/53/31 27/55/31 43/54/31
f 27/55/31 28/58/31 44/56/31
f 29/57/31 45/60/31 44/56/31
f 30/59/31 46/62/31 45/60/31
f 31/61/31 47/64/31 46/62/31
f 32/63/31 48/65/31 47/64/31
f 17/36/31 33/35/31 48/65/31
f 34/66/2 50/70/32 49/67/1
f 35/69/5 51/72/6 50/70/32
f 36/71/33 52/74/34 51/72/6
f 37/73/8 53/76/10 52/74/34
f 38/75/9 54/78/35 53/76/10
f 39/77/11 55/80/14 54/78/35
f 40/79/36 56/82/16 55/80/14
f 41/81/15 57/84/18 56/82/16
f 42/83/17 58/86/37 57/84/18
f 43/85/19 59/88/22 58/86/37
f 44/87/38 60/90/24 59/88/22
f 45/89/39 61/92/40 60/90/24
f 46/91/25 62/94/41 61/92/40
f 47/93/27 63/206/28 62/94/41
f 48/95/42 64/98/30 63/96/28
f 33/68/3 49/67/1 64/98/30
f 50/99/43 66/103/43 65/100/43
f 50/99/43 51/105/43 67/102/43
f 52/104/43 68/107/43 67/102/43
f 53/106/43 69/109/43 68/107/43
f 54/108/43 70/111/43 69/109/43
f 54/108/43 55/113/43 71/110/43
f 56/112/43 72/115/43 71/110/43
f 56/112/43 57/117/43 73/114/43
f 58/116/43 74/119/43 73/114/43
f 59/118/43 75/121/43 74/119/43
f 60/120/43 76/123/43 75/121/43
f 60/120/43 61/125/43 77/122/43
f 62/124/43 78/127/43 77/122/43
f 63/126/43 79/129/43 78/127/43
f 64/128/43 80/130/43 79/129/43
f 64/128/43 49/101/43 65/100/43
f 66/131/2 82/135/32 81/132/1
f 67/134/5 83/137/6 82/135/32
f 68/136/33 84/139/34 83/137/6
f 69/138/8 85/141/10 84/139/34
f 70/140/9 86/143/35 85/141/10
f 71/142/11 87/145/14 86/143/35
f 72/144/36 88/147/16 87/145/14
f 73/146/44 89/207/44 88/147/16
f 73/148/44 74/152/45 90/149/45
f 75/151/19 91/154/22 90/149/45
f 76/153/38 92/156/24 91/154/22
f 77/155/39 93/158/40 92/156/24
f 78/157/25 94/160/41 93/158/40
f 79/159/27 95/162/28 94/160/41
f 80/161/42 96/163/30 95/162/28
f 65/133/3 81/132/1 96/163/30
f 82/164/46 98/168/50 97/165/47
f 83/167/49 99/170/52 98/168/50
f 83/167/49 84/171/53 100/169/51
f 84/171/53 85/173/55 101/172/54
f 85/173/55 86/176/58 102/174/56
f 87/175/57 103/178/60 102/174/56
f 88/177/59 104/180/62 103/178/60
f 88/177/59 89/181/63 105/179/61
f 89/181/63 90/184/66 106/182/64
f 91/183/65 107/186/68 106/182/64
f 92/185/67 108/188/70 107/186/68
f 93/187/69 109/190/72 108/188/70
f 94/189/71 110/192/74 109/190/72
f 95/191/73 111/194/76 110/192/74
f 96/193/75 112/195/77 111/194/76
f 81/166/48 97/165/47 112/195/77
f 114/196/31 117/202/83 118/197/78
f 119/199/80 120/204/85 114/196/31
f 115/200/81 101/172/54 102/174/56
f 114/196/31 115/200/81 116/201/82
f 108/188/70 109/190/72 113/198/79
f 100/169/51 101/172/54 115/200/81
f 121/203/84 115/200/81 114/196/31
f 113/198/79 109/190/72 110/192/74
f 116/201/82 102/174/56 103/178/60
f 117/202/83 116/201/82 104/180/62
f 117/202/83 105/179/61 106/182/64
f 118/197/78 106/182/64 107/186/68
f 119/199/80 110/192/74 111/194/76
f 120/204/85 119/199/80 112/195/77
f 120/204/85 97/165/47 98/168/50
f 121/203/84 98/168/50 99/170/52
