# https://github.com/mikedh/trimesh
mtllib material.mtl
usemtl material_0
v -0.01181467 -0.07192100 0.42695885
v 0.01181459 -0.07192100 0.42695885
v 0.01382043 -0.08069466 0.43353258
v -0.01382051 -0.08069466 0.43353258
v 0.03935729 0.04768772 0.43353258
v -0.03935721 0.04768772 0.43353258
v -0.03935721 0.04768772 0.49342635
v 0.03935721 0.04768772 0.49342635
v 0.05035351 -0.04617011 0.42695885
v 0.05939605 -0.00071037 0.42695885
v 0.06948002 0.00260579 0.43353258
v 0.05890229 -0.05057193 0.43353258
v -0.03364507 0.03782855 0.42695885
v -0.05939605 -0.00071037 0.42695885
v -0.06948002 0.00260586 0.43353258
v -0.05035359 -0.04617011 0.42695885
v -0.05890237 -0.05057186 0.43353258
v 0.03364515 0.03782855 0.42695885
v -0.05890237 -0.05057186 0.49342635
v -0.01382051 -0.08069466 0.49342635
v -0.01243215 -0.07462197 0.50000000
v -0.05298538 -0.04752522 0.50000000
v -0.06948010 0.00260586 0.49342635
v 0.01382035 -0.08069466 0.49342635
v 0.06948002 0.00260579 0.49342635
v 0.05890229 -0.05057193 0.49342635
v -0.03540363 0.04086371 0.50000000
v -0.06250039 0.00031056 0.50000000
v 0.01243207 -0.07462197 0.50000000
v 0.05298522 -0.04752522 0.50000000
v 0.06250031 0.00031048 0.50000000
v 0.03540356 0.04086363 0.50000000
vn -0.25768655 -0.83295653 -0.48967444
vn 0.25768655 -0.83295653 -0.48967444
vn 0.26071122 -0.86843737 -0.42171815
vn -0.26071122 -0.86843737 -0.42171815
vn 0.42379928 0.78929865 -0.44429924
vn -0.42379928 0.78929865 -0.44429924
vn -0.43739523 0.81429112 0.38159584
vn 0.43739523 0.81429112 0.38159584
vn 0.70441560 -0.48471074 -0.51851149
vn 0.82637129 0.15179473 -0.54228116
vn 0.87906897 0.18029364 -0.44128443
vn 0.75570027 -0.49880018 -0.42440015
vn -0.38019848 0.72149712 -0.57869769
vn -0.82637129 0.15179473 -0.54228116
vn -0.87906897 0.18029364 -0.44128443
vn -0.70441560 -0.48471074 -0.51851149
vn -0.75570027 -0.49880018 -0.42440015
vn 0.38019848 0.72149712 -0.57869769
vn -0.78049556 -0.51479707 0.35469798
vn -0.26948681 -0.89785605 0.34818296
vn -0.13670303 -0.43350962 0.89071976
vn -0.37339424 -0.26409593 0.88928628
vn -0.90840079 0.18670016 0.37410033
vn 0.26948681 -0.89785605 0.34818296
vn 0.90840079 0.18670016 0.37410033
vn 0.78049556 -0.51479707 0.35469798
vn -0.19690403 0.37920776 0.90411851
vn -0.42639863 0.07159977 0.90169711
vn 0.13670303 -0.43350962 0.89071976
vn 0.37339424 -0.26409593 0.88928628
vn 0.42639863 0.07159977 0.90169711
vn 0.19690403 0.37920776 0.90411851
vt 0.59027100 0.57805500
vt 0.59151700 0.66297200
vt 0.62462800 0.65011600
vt 0.62050000 0.58603200
vt 0.92411400 0.68085700
vt 0.91890700 0.51323500
vt 0.83256800 0.56528500
vt 0.84275200 0.63062100
vt 0.69062200 0.78424000
vt 0.84695300 0.79929400
vt 0.83838900 0.76142400
vt 0.71069600 0.75343300
vt 0.95919100 0.48963500
vt 0.81736100 0.40170800
vt 0.81508500 0.44226900
vt 0.66491800 0.44613400
vt 0.68943900 0.47273000
vt 0.95919100 0.69509800
vt 0.74611300 0.55821000
vt 0.72481800 0.60121300
vt 0.73331500 0.60230600
vt 0.75132000 0.56519700
vt 0.79120200 0.54346700
vt 0.72843100 0.62754800
vt 0.80930800 0.66387100
vt 0.76201000 0.66301800
vt 0.82500800 0.57084600
vt 0.78970100 0.55249800
vt 0.73650800 0.62419700
vt 0.76497300 0.65474900
vt 0.80519600 0.65568600
vt 0.83354700 0.62742400
f 1/1/1 2/2/2 3/3/3
f 1/1/1 3/3/3 4/4/4
f 5/5/5 6/6/6 7/7/7
f 5/5/5 7/7/7 8/8/8
f 9/9/9 10/10/10 11/11/11
f 9/9/9 11/11/11 12/12/12
f 13/13/13 14/14/14 15/15/15
f 13/13/13 15/15/15 6/6/6
f 16/16/16 1/1/1 4/4/4
f 16/16/16 4/4/4 17/17/17
f 2/2/2 9/9/9 12/12/12
f 2/2/2 12/12/12 3/3/3
f 10/10/10 18/18/18 5/5/5
f 10/10/10 5/5/5 11/11/11
f 18/18/18 13/13/13 6/6/6
f 18/18/18 6/6/6 5/5/5
f 14/14/14 16/16/16 17/17/17
f 14/14/14 17/17/17 15/15/15
f 19/19/19 20/20/20 21/21/21
f 19/19/19 21/21/21 22/22/22
f 15/15/15 17/17/17 19/19/19
f 15/15/15 19/19/19 23/23/23
f 4/4/4 3/3/3 24/24/24
f 4/4/4 24/24/24 20/20/20
f 12/12/12 11/11/11 25/25/25
f 12/12/12 25/25/25 26/26/26
f 6/6/6 15/15/15 23/23/23
f 6/6/6 23/23/23 7/7/7
f 17/17/17 4/4/4 20/20/20
f 17/17/17 20/20/20 19/19/19
f 3/3/3 12/12/12 26/26/26
f 3/3/3 26/26/26 24/24/24
f 11/11/11 5/5/5 8/8/8
f 11/11/11 8/8/8 25/25/25
f 24/24/24 26/26/26 30/30/30
f 24/24/24 30/30/30 29/29/29
f 25/25/25 8/8/8 32/32/32
f 25/25/25 32/32/32 31/31/31
f 8/8/8 7/7/7 27/27/27
f 8/8/8 27/27/27 32/32/32
f 23/23/23 19/19/19 22/22/22
f 23/23/23 22/22/22 28/28/28
f 20/20/20 24/24/24 29/29/29
f 20/20/20 29/29/29 21/21/21
f 26/26/26 25/25/25 31/31/31
f 26/26/26 31/31/31 30/30/30
f 7/7/7 23/23/23 28/28/28
f 7/7/7 28/28/28 27/27/27
f 28/28/28 32/32/32 27/27/27
f 32/32/32 28/28/28 31/31/31
f 31/31/31 28/28/28 22/22/22
f 31/31/31 22/22/22 30/30/30
f 30/30/30 22/22/22 21/21/21
f 30/30/30 21/21/21 29/29/29