# https://github.com/mikedh/trimesh
mtllib material.mtl
usemtl DCletterblocks
v -0.10000002 0.09999990 0.08549741
v 0.10000002 0.09999990 -0.08549741
v -0.10000002 0.09999990 -0.08549741
v 0.10000002 -0.10000014 0.08549741
v -0.10000002 -0.10000014 -0.08549741
v 0.10000002 -0.10000014 -0.08549741
v 0.10000002 0.08549729 -0.10000002
v -0.10000002 -0.08549753 -0.10000002
v -0.10000002 0.08549729 -0.10000002
v 0.10000002 -0.10000014 0.08549741
v 0.10000002 -0.10000014 -0.08549741
v 0.10000002 -0.08549753 -0.10000002
v -0.10000002 0.08549729 0.10000002
v 0.10000002 -0.08549753 0.10000002
v 0.10000002 0.08549729 0.10000002
v 0.10000002 -0.08549753 -0.10000002
v -0.10000002 -0.10000014 -0.08549741
v -0.10000002 -0.08549753 -0.10000002
v -0.10000002 -0.08549753 0.10000002
v 0.10000002 -0.10000014 0.08549741
v 0.10000002 -0.08549753 0.10000002
v 0.10000002 0.08549729 0.10000002
v -0.10000002 0.09999990 0.08549741
v -0.10000002 0.08549729 0.10000002
v -0.10000002 0.08549729 -0.10000002
v 0.10000002 0.09999990 -0.08549741
v 0.10000002 0.08549729 -0.10000002
v -0.10000002 0.09999990 0.08549741
v -0.10000002 0.09999990 -0.08549741
v -0.10000002 0.08549729 -0.10000002
v 0.10000002 0.09999990 0.08549741
v -0.10000002 -0.10000014 0.08549741
v 0.10000002 -0.08549753 -0.10000002
v 0.10000002 -0.08549753 -0.10000002
v 0.10000002 0.08549729 -0.10000002
v 0.10000002 0.08549729 0.10000002
v 0.10000002 0.09999990 -0.08549741
v 0.10000002 0.09999990 -0.08549741
v 0.10000002 0.09999990 0.08549741
v 0.10000002 0.08549729 0.10000002
v 0.10000002 -0.08549753 0.10000002
v 0.10000002 -0.10000014 0.08549741
v -0.10000002 -0.08549753 0.10000002
v 0.10000002 -0.08549753 -0.10000002
v 0.10000002 -0.10000014 -0.08549741
v -0.10000002 -0.10000014 -0.08549741
v -0.10000002 -0.08549753 0.10000002
v -0.10000002 -0.10000014 0.08549741
v 0.10000002 -0.10000014 0.08549741
v 0.10000002 0.08549729 0.10000002
v 0.10000002 0.09999990 0.08549741
v -0.10000002 0.09999990 0.08549741
v -0.10000002 0.08549729 -0.10000002
v -0.10000002 0.09999990 -0.08549741
v 0.10000002 0.09999990 -0.08549741
v -0.10000002 0.08549729 -0.10000002
v -0.10000002 -0.08549753 -0.10000002
v -0.10000002 -0.08549753 0.10000002
v -0.10000002 -0.10000014 -0.08549741
v -0.10000002 -0.10000014 -0.08549741
v -0.10000002 -0.10000014 0.08549741
v -0.10000002 -0.08549753 0.10000002
v -0.10000002 0.08549729 0.10000002
v -0.10000002 0.09999990 0.08549741
vn 0.00000000 1.00000000 0.00000000
vn 0.00000000 1.00000000 0.00000000
vn 0.00000000 1.00000000 0.00000000
vn 0.00000000 -1.00000000 0.00000000
vn 0.00000000 -1.00000000 0.00000000
vn 0.00000000 -1.00000000 0.00000000
vn 0.00000000 0.00000000 -1.00000000
vn 0.00000000 0.00000000 -1.00000000
vn 0.00000000 0.00000000 -1.00000000
vn 1.00000000 0.00000056 0.00000000
vn 1.00000000 0.00000056 0.00000000
vn 1.00000000 0.00000056 0.00000000
vn 0.00000000 0.00000000 1.00000000
vn 0.00000000 0.00000000 1.00000000
vn 0.00000000 0.00000000 1.00000000
vn 0.00000000 -0.70710653 -0.70710707
vn 0.00000000 -0.70710653 -0.70710707
vn 0.00000000 -0.70710653 -0.70710707
vn 0.00000000 -0.70710653 0.70710707
vn 0.00000000 -0.70710653 0.70710707
vn 0.00000000 -0.70710653 0.70710707
vn 0.00000000 0.70710695 0.70710659
vn 0.00000000 0.70710695 0.70710659
vn 0.00000000 0.70710695 0.70710659
vn 0.00000000 0.70710695 -0.70710659
vn 0.00000000 0.70710695 -0.70710659
vn 0.00000000 0.70710695 -0.70710659
vn -1.00000000 -0.00000056 0.00000000
vn -1.00000000 -0.00000056 0.00000000
vn -1.00000000 -0.00000056 0.00000000
vn 0.00000000 1.00000000 0.00000000
vn 0.00000000 -1.00000000 0.00000000
vn 0.00000000 0.00000000 -1.00000000
vn 1.00000000 0.00000000 0.00000000
vn 1.00000000 0.00000000 0.00000000
vn 1.00000000 0.00000000 0.00000000
vn 1.00000000 0.00000000 0.00000000
vn 1.00000000 -0.00000056 0.00000000
vn 1.00000000 -0.00000056 0.00000000
vn 1.00000000 -0.00000056 0.00000000
vn 1.00000000 0.00000000 0.00000000
vn 1.00000000 0.00000000 0.00000000
vn 0.00000000 0.00000000 1.00000000
vn 0.00000000 -0.70710695 -0.70710659
vn 0.00000000 -0.70710695 -0.70710659
vn 0.00000000 -0.70710695 -0.70710659
vn 0.00000000 -0.70710695 0.70710659
vn 0.00000000 -0.70710695 0.70710659
vn 0.00000000 -0.70710695 0.70710659
vn 0.00000000 0.70710653 0.70710707
vn 0.00000000 0.70710653 0.70710707
vn 0.00000000 0.70710653 0.70710707
vn 0.00000000 0.70710653 -0.70710707
vn 0.00000000 0.70710653 -0.70710707
vn 0.00000000 0.70710653 -0.70710707
vn -1.00000000 0.00000000 0.00000000
vn -1.00000000 0.00000000 0.00000000
vn -1.00000000 0.00000000 0.00000000
vn -1.00000000 0.00000000 0.00000000
vn -1.00000000 0.00000056 0.00000000
vn -1.00000000 0.00000056 0.00000000
vn -1.00000000 0.00000056 0.00000000
vn -1.00000000 0.00000000 0.00000000
vn -1.00000000 0.00000000 0.00000000
vt 0.07433780 0.33377475
vt 0.00525695 0.39283699
vt 0.07433780 0.39283705
vt 0.00525695 0.25467515
vt 0.07433780 0.19561279
vt 0.00525695 0.19561273
vt 0.00525701 0.12653184
vt 0.07433780 0.18559420
vt 0.07433786 0.12653184
vt 0.29015678 0.23499066
vt 0.38197306 0.23499066
vt 0.38976014 0.22720361
vt 0.07433780 0.32375616
vt 0.00525695 0.26469368
vt 0.00525695 0.32375616
vt 0.00525695 0.18559420
vt 0.07433780 0.19561279
vt 0.07433780 0.18559420
vt 0.07433780 0.26469374
vt 0.00525695 0.25467515
vt 0.00525695 0.26469368
vt 0.00525695 0.32375616
vt 0.07433780 0.33377475
vt 0.07433780 0.32375616
vt 0.07433786 0.12653184
vt 0.00525701 0.12152261
vt 0.00525701 0.12653184
vt 0.29015678 0.23499060
vt 0.38197306 0.23499060
vt 0.38976014 0.22720343
vt 0.00525695 0.33377469
vt 0.07433780 0.25467521
vt 0.00525695 0.18559420
vt 0.38976014 0.22720361
vt 0.38976014 0.13538796
vt 0.28236964 0.13538796
vt 0.38197306 0.12760079
vt 0.38197306 0.12760079
vt 0.29015678 0.12760079
vt 0.28236964 0.13538796
vt 0.28236964 0.22720361
vt 0.29015678 0.23499066
vt 0.07433780 0.26469374
vt 0.00525695 0.18559420
vt 0.00525695 0.19561273
vt 0.07433780 0.19561279
vt 0.07433780 0.26469374
vt 0.07433780 0.25467521
vt 0.00525695 0.25467515
vt 0.00525695 0.32375616
vt 0.00525695 0.33377469
vt 0.07433780 0.33377475
vt 0.07433786 0.12653184
vt 0.07433786 0.12152261
vt 0.00525701 0.12152261
vt 0.38976014 0.22720343
vt 0.38976014 0.13538778
vt 0.28236964 0.13538778
vt 0.38197306 0.12760073
vt 0.38197306 0.12760073
vt 0.29015678 0.12760073
vt 0.28236964 0.13538778
vt 0.28236964 0.22720343
vt 0.29015678 0.23499060
f 1/1/1 2/2/2 3/3/3
f 4/4/4 5/5/5 6/6/6
f 7/7/7 8/8/8 9/9/9
f 10/10/10 11/11/11 12/12/12
f 13/13/13 14/14/14 15/15/15
f 16/16/16 17/17/17 18/18/18
f 19/19/19 20/20/20 21/21/21
f 22/22/22 23/23/23 24/24/24
f 25/25/25 26/26/26 27/27/27
f 28/28/28 29/29/29 30/30/30
f 1/1/1 31/31/31 2/2/2
f 4/4/4 32/32/32 5/5/5
f 7/7/7 33/33/33 8/8/8
f 34/34/34 35/35/35 36/36/36
f 35/35/35 37/37/37 36/36/36
f 38/38/38 39/39/39 40/40/40
f 36/36/36 41/41/41 34/34/34
f 41/41/41 42/42/42 34/34/34
f 13/13/13 43/43/43 14/14/14
f 44/44/44 45/45/45 46/46/46
f 47/47/47 48/48/48 49/49/49
f 50/50/50 51/51/51 52/52/52
f 53/53/53 54/54/54 55/55/55
f 56/56/56 57/57/57 58/58/58
f 57/57/57 59/59/59 58/58/58
f 60/60/60 61/61/61 62/62/62
f 58/58/58 63/63/63 56/56/56
f 63/63/63 64/64/64 56/56/56

