# https://github.com/mikedh/trimesh
mtllib material.mtl
usemtl DCletterblocks
v -0.10000002 0.09999990 0.08549735
v 0.10000002 0.09999990 -0.08549741
v -0.10000002 0.09999990 -0.08549741
v 0.10000002 -0.10000014 0.08549735
v -0.10000002 -0.10000014 -0.08549741
v 0.10000002 -0.10000014 -0.08549741
v 0.10000002 0.08549729 -0.10000002
v -0.10000002 -0.08549753 -0.10000002
v -0.10000002 0.08549729 -0.10000002
v 0.10000002 -0.10000014 0.08549735
v 0.10000002 -0.10000014 -0.08549741
v 0.10000002 -0.08549753 -0.10000002
v -0.10000002 0.08549729 0.09999996
v 0.10000002 -0.08549753 0.09999996
v 0.10000002 0.08549729 0.09999996
v 0.10000002 -0.08549753 -0.10000002
v -0.10000002 -0.10000014 -0.08549741
v -0.10000002 -0.08549753 -0.10000002
v -0.10000002 -0.08549753 0.09999996
v 0.10000002 -0.10000014 0.08549735
v 0.10000002 -0.08549753 0.09999996
v 0.10000002 0.08549729 0.09999996
v -0.10000002 0.09999990 0.08549735
v -0.10000002 0.08549729 0.09999996
v -0.10000002 0.08549729 -0.10000002
v 0.10000002 0.09999990 -0.08549741
v 0.10000002 0.08549729 -0.10000002
v -0.10000002 0.09999990 0.08549735
v -0.10000002 0.09999990 -0.08549741
v -0.10000002 0.08549729 -0.10000002
v 0.10000002 0.09999990 0.08549735
v -0.10000002 -0.10000014 0.08549735
v 0.10000002 -0.08549753 -0.10000002
v 0.10000002 -0.08549753 -0.10000002
v 0.10000002 0.08549729 -0.10000002
v 0.10000002 0.08549729 0.09999996
v 0.10000002 0.09999990 -0.08549741
v 0.10000002 0.09999990 -0.08549741
v 0.10000002 0.09999990 0.08549735
v 0.10000002 0.08549729 0.09999996
v 0.10000002 -0.08549753 0.09999996
v 0.10000002 -0.10000014 0.08549735
v -0.10000002 -0.08549753 0.09999996
v 0.10000002 -0.08549753 -0.10000002
v 0.10000002 -0.10000014 -0.08549741
v -0.10000002 -0.10000014 -0.08549741
v -0.10000002 -0.08549753 0.09999996
v -0.10000002 -0.10000014 0.08549735
v 0.10000002 -0.10000014 0.08549735
v 0.10000002 0.08549729 0.09999996
v 0.10000002 0.09999990 0.08549735
v -0.10000002 0.09999990 0.08549735
v -0.10000002 0.08549729 -0.10000002
v -0.10000002 0.09999990 -0.08549741
v 0.10000002 0.09999990 -0.08549741
v -0.10000002 0.08549729 -0.10000002
v -0.10000002 -0.08549753 -0.10000002
v -0.10000002 -0.08549753 0.09999996
v -0.10000002 -0.10000014 -0.08549741
v -0.10000002 -0.10000014 -0.08549741
v -0.10000002 -0.10000014 0.08549735
v -0.10000002 -0.08549753 0.09999996
v -0.10000002 0.08549729 0.09999996
v -0.10000002 0.09999990 0.08549735
vn 0.00000000 1.00000000 0.00000000
vn 0.00000000 1.00000000 0.00000000
vn 0.00000000 1.00000000 0.00000000
vn 0.00000000 -1.00000000 0.00000000
vn 0.00000000 -1.00000000 0.00000000
vn 0.00000000 -1.00000000 0.00000000
vn 0.00000000 0.00000000 -1.00000000
vn 0.00000000 0.00000000 -1.00000000
vn 0.00000000 0.00000000 -1.00000000
vn 1.00000000 -0.00000094 0.00000000
vn 1.00000000 -0.00000094 0.00000000
vn 1.00000000 -0.00000094 0.00000000
vn 0.00000000 0.00000000 1.00000000
vn 0.00000000 0.00000000 1.00000000
vn 0.00000000 0.00000000 1.00000000
vn 0.00000000 -0.70710653 -0.70710707
vn 0.00000000 -0.70710653 -0.70710707
vn 0.00000000 -0.70710653 -0.70710707
vn 0.00000000 -0.70710653 0.70710707
vn 0.00000000 -0.70710653 0.70710707
vn 0.00000000 -0.70710653 0.70710707
vn 0.00000000 0.70710695 0.70710659
vn 0.00000000 0.70710695 0.70710659
vn 0.00000000 0.70710695 0.70710659
vn 0.00000000 0.70710695 -0.70710659
vn 0.00000000 0.70710695 -0.70710659
vn 0.00000000 0.70710695 -0.70710659
vn -1.00000000 0.00000094 0.00000000
vn -1.00000000 0.00000094 0.00000000
vn -1.00000000 0.00000094 0.00000000
vn 0.00000000 1.00000000 0.00000000
vn 0.00000000 -1.00000000 0.00000000
vn 0.00000000 0.00000000 -1.00000000
vn 1.00000000 0.00000000 0.00000000
vn 1.00000000 0.00000000 0.00000000
vn 1.00000000 0.00000000 0.00000000
vn 1.00000000 0.00000000 0.00000000
vn 1.00000000 0.00000094 0.00000000
vn 1.00000000 0.00000094 0.00000000
vn 1.00000000 0.00000094 0.00000000
vn 1.00000000 0.00000000 0.00000000
vn 1.00000000 0.00000000 0.00000000
vn 0.00000000 0.00000000 1.00000000
vn 0.00000000 -0.70710695 -0.70710659
vn 0.00000000 -0.70710695 -0.70710659
vn 0.00000000 -0.70710695 -0.70710659
vn 0.00000000 -0.70710695 0.70710659
vn 0.00000000 -0.70710695 0.70710659
vn 0.00000000 -0.70710695 0.70710659
vn 0.00000000 0.70710653 0.70710707
vn 0.00000000 0.70710653 0.70710707
vn 0.00000000 0.70710653 0.70710707
vn 0.00000000 0.70710653 -0.70710707
vn 0.00000000 0.70710653 -0.70710707
vn 0.00000000 0.70710653 -0.70710707
vn -1.00000000 0.00000000 0.00000000
vn -1.00000000 0.00000000 0.00000000
vn -1.00000000 0.00000000 0.00000000
vn -1.00000000 0.00000000 0.00000000
vn -1.00000000 -0.00000094 0.00000000
vn -1.00000000 -0.00000094 0.00000000
vn -1.00000000 -0.00000094 0.00000000
vn -1.00000000 0.00000000 0.00000000
vn -1.00000000 0.00000000 0.00000000
vt 0.30313551 0.59487104
vt 0.24407314 0.52578992
vt 0.24407308 0.59487104
vt 0.38223490 0.52578998
vt 0.44129720 0.59487116
vt 0.44129720 0.52579010
vt 0.51037824 0.52579004
vt 0.45131582 0.59487110
vt 0.51037818 0.59487116
vt 0.52599382 0.35495025
vt 0.61780953 0.35495025
vt 0.62559670 0.34716320
vt 0.31315407 0.59487092
vt 0.37221649 0.52578992
vt 0.31315407 0.52578992
vt 0.45131588 0.52579010
vt 0.44129720 0.59487116
vt 0.45131582 0.59487110
vt 0.37221643 0.59487104
vt 0.38223490 0.52578998
vt 0.37221649 0.52578992
vt 0.31315407 0.52578992
vt 0.30313551 0.59487104
vt 0.31315407 0.59487092
vt 0.51037818 0.59487116
vt 0.51538759 0.52579010
vt 0.51037824 0.52579004
vt 0.52599382 0.35495031
vt 0.61780953 0.35495031
vt 0.62559670 0.34716320
vt 0.30313551 0.52578998
vt 0.38223496 0.59487104
vt 0.45131588 0.52579010
vt 0.62559670 0.34716320
vt 0.62559670 0.25534749
vt 0.51820618 0.25534749
vt 0.61780953 0.24756038
vt 0.61780953 0.24756038
vt 0.52599382 0.24756038
vt 0.51820618 0.25534749
vt 0.51820618 0.34716320
vt 0.52599382 0.35495025
vt 0.37221643 0.59487104
vt 0.45131588 0.52579010
vt 0.44129720 0.52579010
vt 0.44129720 0.59487116
vt 0.37221643 0.59487104
vt 0.38223496 0.59487104
vt 0.38223490 0.52578998
vt 0.31315407 0.52578992
vt 0.30313551 0.52578998
vt 0.30313551 0.59487104
vt 0.51037818 0.59487116
vt 0.51538754 0.59487116
vt 0.51538759 0.52579010
vt 0.62559670 0.34716320
vt 0.62559670 0.25534749
vt 0.51820618 0.25534749
vt 0.61780953 0.24756044
vt 0.61780953 0.24756044
vt 0.52599382 0.24756044
vt 0.51820618 0.25534749
vt 0.51820618 0.34716320
vt 0.52599382 0.35495031
f 1/1/1 2/2/2 3/3/3
f 4/4/4 5/5/5 6/6/6
f 7/7/7 8/8/8 9/9/9
f 10/10/10 11/11/11 12/12/12
f 13/13/13 14/14/14 15/15/15
f 16/16/16 17/17/17 18/18/18
f 19/19/19 20/20/20 21/21/21
f 22/22/22 23/23/23 24/24/24
f 25/25/25 26/26/26 27/27/27
f 28/28/28 29/29/29 30/30/30
f 1/1/1 31/31/31 2/2/2
f 4/4/4 32/32/32 5/5/5
f 7/7/7 33/33/33 8/8/8
f 34/34/34 35/35/35 36/36/36
f 35/35/35 37/37/37 36/36/36
f 38/38/38 39/39/39 40/40/40
f 36/36/36 41/41/41 34/34/34
f 41/41/41 42/42/42 34/34/34
f 13/13/13 43/43/43 14/14/14
f 44/44/44 45/45/45 46/46/46
f 47/47/47 48/48/48 49/49/49
f 50/50/50 51/51/51 52/52/52
f 53/53/53 54/54/54 55/55/55
f 56/56/56 57/57/57 58/58/58
f 57/57/57 59/59/59 58/58/58
f 60/60/60 61/61/61 62/62/62
f 58/58/58 63/63/63 56/56/56
f 63/63/63 64/64/64 56/56/56

