# https://github.com/mikedh/trimesh
mtllib material.mtl
usemtl DCletterblocks
v -0.10000002 0.10000002 0.08549741
v 0.10000002 0.10000002 -0.08549741
v -0.10000002 0.10000002 -0.08549741
v 0.10000002 -0.10000002 0.08549741
v -0.10000002 -0.10000002 -0.08549741
v 0.10000002 -0.10000002 -0.08549741
v 0.10000002 0.08549741 -0.10000002
v -0.10000002 -0.08549741 -0.10000002
v -0.10000002 0.08549741 -0.10000002
v 0.10000002 -0.10000002 0.08549741
v 0.10000002 -0.10000002 -0.08549741
v 0.10000002 -0.08549741 -0.10000002
v -0.10000002 0.08549741 0.10000002
v 0.10000002 -0.08549741 0.10000002
v 0.10000002 0.08549741 0.10000002
v 0.10000002 -0.08549741 -0.10000002
v -0.10000002 -0.10000002 -0.08549741
v -0.10000002 -0.08549741 -0.10000002
v -0.10000002 -0.08549741 0.10000002
v 0.10000002 -0.10000002 0.08549741
v 0.10000002 -0.08549741 0.10000002
v 0.10000002 0.08549741 0.10000002
v -0.10000002 0.10000002 0.08549741
v -0.10000002 0.08549741 0.10000002
v -0.10000002 0.08549741 -0.10000002
v 0.10000002 0.10000002 -0.08549741
v 0.10000002 0.08549741 -0.10000002
v -0.10000002 0.10000002 0.08549741
v -0.10000002 0.10000002 -0.08549741
v -0.10000002 0.08549741 -0.10000002
v 0.10000002 0.10000002 0.08549741
v -0.10000002 -0.10000002 0.08549741
v 0.10000002 -0.08549741 -0.10000002
v 0.10000002 -0.08549741 -0.10000002
v 0.10000002 0.08549741 -0.10000002
v 0.10000002 0.08549741 0.10000002
v 0.10000002 0.10000002 -0.08549741
v 0.10000002 0.10000002 -0.08549741
v 0.10000002 0.10000002 0.08549741
v 0.10000002 0.08549741 0.10000002
v 0.10000002 -0.08549741 0.10000002
v 0.10000002 -0.10000002 0.08549741
v -0.10000002 -0.08549741 0.10000002
v 0.10000002 -0.10000002 -0.08549741
v -0.10000002 -0.10000002 0.08549741
v 0.10000002 0.10000002 0.08549741
v -0.10000002 0.10000002 -0.08549741
v -0.10000002 0.08549741 -0.10000002
v -0.10000002 -0.08549741 -0.10000002
v -0.10000002 -0.08549741 0.10000002
v -0.10000002 -0.10000002 -0.08549741
v -0.10000002 -0.10000002 -0.08549741
v -0.10000002 -0.10000002 0.08549741
v -0.10000002 -0.08549741 0.10000002
v -0.10000002 0.08549741 0.10000002
v -0.10000002 0.10000002 0.08549741
vn 0.00000000 1.00000000 0.00000000
vn 0.00000000 1.00000000 0.00000000
vn 0.00000000 1.00000000 0.00000000
vn 0.00000000 -1.00000000 0.00000000
vn 0.00000000 -1.00000000 0.00000000
vn 0.00000000 -1.00000000 0.00000000
vn 0.00000000 0.00000000 -1.00000000
vn 0.00000000 0.00000000 -1.00000000
vn 0.00000000 0.00000000 -1.00000000
vn 1.00000000 0.00000056 0.00000000
vn 1.00000000 0.00000056 0.00000000
vn 1.00000000 0.00000056 0.00000000
vn 0.00000000 0.00000000 1.00000000
vn 0.00000000 0.00000000 1.00000000
vn 0.00000000 0.00000000 1.00000000
vn 0.00000000 -0.70710695 -0.70710659
vn 0.00000000 -0.70710695 -0.70710659
vn 0.00000000 -0.70710695 -0.70710659
vn 0.00000000 -0.70710695 0.70710659
vn 0.00000000 -0.70710695 0.70710659
vn 0.00000000 -0.70710695 0.70710659
vn 0.00000000 0.70710695 0.70710659
vn 0.00000000 0.70710695 0.70710659
vn 0.00000000 0.70710695 0.70710659
vn 0.00000000 0.70710695 -0.70710659
vn 0.00000000 0.70710695 -0.70710659
vn 0.00000000 0.70710695 -0.70710659
vn -1.00000000 -0.00000056 0.00000000
vn -1.00000000 -0.00000056 0.00000000
vn -1.00000000 -0.00000056 0.00000000
vn 0.00000000 1.00000000 0.00000000
vn 0.00000000 -1.00000000 0.00000000
vn 0.00000000 0.00000000 -1.00000000
vn 1.00000000 0.00000000 0.00000000
vn 1.00000000 0.00000000 0.00000000
vn 1.00000000 0.00000000 0.00000000
vn 1.00000000 0.00000000 0.00000000
vn 1.00000000 -0.00000056 0.00000000
vn 1.00000000 -0.00000056 0.00000000
vn 1.00000000 -0.00000056 0.00000000
vn 1.00000000 0.00000000 0.00000000
vn 1.00000000 0.00000000 0.00000000
vn 0.00000000 0.00000000 1.00000000
vn 0.00000000 -0.70710695 -0.70710659
vn 0.00000000 -0.70710695 0.70710659
vn 0.00000000 0.70710695 0.70710659
vn 0.00000000 0.70710695 -0.70710659
vn -1.00000000 0.00000000 0.00000000
vn -1.00000000 0.00000000 0.00000000
vn -1.00000000 0.00000000 0.00000000
vn -1.00000000 0.00000000 0.00000000
vn -1.00000000 0.00000056 0.00000000
vn -1.00000000 0.00000056 0.00000000
vn -1.00000000 0.00000056 0.00000000
vn -1.00000000 0.00000000 0.00000000
vn -1.00000000 0.00000000 0.00000000
vt 0.34616926 0.75481898
vt 0.28710696 0.68573785
vt 0.28710690 0.75481892
vt 0.42526904 0.68573797
vt 0.48433134 0.75481910
vt 0.48433134 0.68573797
vt 0.55341208 0.68573797
vt 0.49434981 0.75481910
vt 0.55341208 0.75481910
vt 0.87974787 0.39283228
vt 0.97156405 0.39283228
vt 0.97935122 0.38504529
vt 0.35618779 0.75481898
vt 0.41525039 0.68573797
vt 0.35618779 0.68573797
vt 0.49434981 0.68573797
vt 0.48433134 0.75481910
vt 0.49434981 0.75481910
vt 0.41525027 0.75481898
vt 0.42526904 0.68573797
vt 0.41525039 0.68573797
vt 0.35618779 0.68573797
vt 0.34616926 0.75481898
vt 0.35618779 0.75481898
vt 0.55341208 0.75481910
vt 0.55842149 0.68573797
vt 0.55341208 0.68573797
vt 0.87974787 0.39283246
vt 0.97156405 0.39283246
vt 0.97935122 0.38504523
vt 0.34616938 0.68573791
vt 0.42526904 0.75481898
vt 0.49434981 0.68573797
vt 0.97935122 0.38504529
vt 0.97935122 0.29322952
vt 0.87196070 0.29322952
vt 0.97156405 0.28544229
vt 0.97156405 0.28544229
vt 0.87974787 0.28544229
vt 0.87196070 0.29322952
vt 0.87196070 0.38504529
vt 0.87974787 0.39283228
vt 0.41525027 0.75481898
vt 0.48433134 0.68573797
vt 0.42526904 0.75481898
vt 0.34616938 0.68573791
vt 0.55842137 0.75481910
vt 0.97935122 0.38504523
vt 0.97935122 0.29322946
vt 0.87196070 0.29322946
vt 0.97156405 0.28544247
vt 0.97156405 0.28544247
vt 0.87974787 0.28544247
vt 0.87196070 0.29322946
vt 0.87196070 0.38504523
vt 0.87974787 0.39283246
f 1/1/1 2/2/2 3/3/3
f 4/4/4 5/5/5 6/6/6
f 7/7/7 8/8/8 9/9/9
f 10/10/10 11/11/11 12/12/12
f 13/13/13 14/14/14 15/15/15
f 16/16/16 17/17/17 18/18/18
f 19/19/19 20/20/20 21/21/21
f 22/22/22 23/23/23 24/24/24
f 25/25/25 26/26/26 27/27/27
f 28/28/28 29/29/29 30/30/30
f 1/1/1 31/31/31 2/2/2
f 4/4/4 32/32/32 5/5/5
f 7/7/7 33/33/33 8/8/8
f 34/34/34 35/35/35 36/36/36
f 35/35/35 37/37/37 36/36/36
f 38/38/38 39/39/39 40/40/40
f 36/36/36 41/41/41 34/34/34
f 41/41/41 42/42/42 34/34/34
f 13/13/13 43/43/43 14/14/14
f 16/16/16 44/44/44 17/17/17
f 19/19/19 45/45/45 20/20/20
f 22/22/22 46/46/46 23/23/23
f 25/25/25 47/47/47 26/26/26
f 48/48/48 49/49/49 50/50/50
f 49/49/49 51/51/51 50/50/50
f 52/52/52 53/53/53 54/54/54
f 50/50/50 55/55/55 48/48/48
f 55/55/55 56/56/56 48/48/48

